<?xml version="1.0" encoding="UTF-8" standalone="no"?>
<svg
   xmlns:dc="http://purl.org/dc/elements/1.1/"
   xmlns:cc="http://creativecommons.org/ns#"
   xmlns:rdf="http://www.w3.org/1999/02/22-rdf-syntax-ns#"
   xmlns:svg="http://www.w3.org/2000/svg"
   xmlns="http://www.w3.org/2000/svg"
   height="100"
   width="100"
   id="svg7954"
   xml:space="preserve"
   viewBox="0 0 100 100"
   y="0px"
   x="0px"
   version="1.1"><metadata
     id="metadata7960"><rdf:RDF><cc:Work
         rdf:about=""><dc:format>image/svg+xml</dc:format><dc:type
           rdf:resource="http://purl.org/dc/dcmitype/StillImage" /><dc:title></dc:title></cc:Work></rdf:RDF></metadata><defs
     id="defs7958" /><g
     id="g2001"
     transform="matrix(5.6344681,0,0,5.6344681,-540.58093,-153.58999)"><circle
       style="opacity:1;fill:#ffffff;fill-opacity:1;stroke:none;stroke-width:1.471416;stroke-linecap:round;stroke-linejoin:round;stroke-miterlimit:4;stroke-dasharray:none;stroke-opacity:1;paint-order:stroke fill markers"
       id="path1394"
       cx="104.55489"
       cy="33.503132"
       r="1.2602117" /><path
       style="fill:none;stroke:#ffffff;stroke-width:2.24616027;stroke-linecap:round;stroke-linejoin:miter;stroke-miterlimit:4;stroke-dasharray:none;stroke-opacity:1"
       d="m 104.50579,36.697547 v 4.094539"
       id="path1398" /></g><path
     id="path16624"
     d="M 12.779362,49.937853 C 13.044458,26.606151 31.904016,11.591854 49.64377,11.272598 c 1.43402,-0.02581 2.849994,0.01385 4.244282,0.117849 0.03597,0.0027 1.44829,-0.01515 2.318452,0.268448 1.36751,0.445684 2.291277,1.48012 1.271452,3.31867 -0.863963,1.557561 -1.923626,7.109365 -4.970661,7.316492 -2.1893,0.148821 -2.673512,-0.282585 -5.563925,1.739347 -2.136991,1.49489 -2.514045,4.823151 -2.362104,6.30221 0.250373,2.437248 0.989436,5.648473 6.958237,6.388378 3.016127,0.373886 7.16513,-2.192859 7.247022,-6.253953 0.128713,-6.382983 -4.084452,-7.701056 -6.174291,-8.176736 -0.594321,-0.135277 0.665539,-0.115186 -0.06065,-0.225437 -4.351124,-0.660592 3.573548,-10.454392 3.722874,-10.43512 0.286166,0.03693 0.571295,0.07661 0.855354,0.119012 17.95568,2.680285 31.63634,16.251066 32.768195,36.279315 0.890494,15.75736 -7.889638,28.964589 -19.862404,35.582897 -0.29472,0.162916 -8.128587,-10.255644 -11.640234,-21.34151 -1.955597,-6.173596 0.745653,-13.293784 -1.337163,-17.786509 -0.941881,-2.031679 -1.340304,-2.223217 -2.62826,-2.781669 -2.086017,-0.904486 -5.381641,-0.952929 -7.257501,0.770574 -0.682142,0.626739 -1.238728,1.266369 -1.558447,2.284189 -0.9763,3.108035 -0.4797,8.270932 -0.550981,15.469494 -0.0068,0.689394 -0.08939,1.486078 -0.07015,2.214403 0.08126,3.076008 -0.303046,6.289672 0.452836,9.471392 1.451738,6.11077 8.198756,6.641585 11.893349,1.822949 0.05233,-0.06825 0.310249,-1.185283 0.337354,-1.936248 0.211966,-5.872654 -0.398791,-29.236136 1.26309,-28.848015 3.587223,0.837772 9.240755,36.728334 10.24673,37.559843 3.153809,2.606845 -2.874983,4.903247 -2.999481,4.954732 -4.250759,1.757857 -8.789288,2.713859 -13.365009,2.711784 C 27.869757,88.16806 12.569982,68.365823 12.779362,49.937853 Z"
     style="fill:#000000;fill-opacity:1;stroke:none;stroke-width:0.2;stroke-linecap:butt;stroke-linejoin:miter;stroke-miterlimit:4;stroke-dasharray:none;stroke-opacity:1" /></svg>