<?xml version="1.0" encoding="UTF-8" standalone="no"?>
<svg
   xmlns:dc="http://purl.org/dc/elements/1.1/"
   xmlns:cc="http://creativecommons.org/ns#"
   xmlns:rdf="http://www.w3.org/1999/02/22-rdf-syntax-ns#"
   xmlns:svg="http://www.w3.org/2000/svg"
   xmlns="http://www.w3.org/2000/svg"
   xmlns:sodipodi="http://sodipodi.sourceforge.net/DTD/sodipodi-0.dtd"
   xmlns:inkscape="http://www.inkscape.org/namespaces/inkscape"
   version="1.1"
   x="0px"
   y="0px"
   viewBox="0 0 100 100"
   xml:space="preserve"
   id="svg6754"
   width="100"
   height="100"
   sodipodi:docname="mh_map_stack.svg"
   inkscape:version="0.92.3 (2405546, 2018-03-11)"><sodipodi:namedview
     pagecolor="#ffffff"
     bordercolor="#666666"
     borderopacity="1"
     objecttolerance="10"
     gridtolerance="10"
     guidetolerance="10"
     inkscape:pageopacity="0"
     inkscape:pageshadow="2"
     inkscape:window-width="1920"
     inkscape:window-height="986"
     id="namedview1418"
     showgrid="false"
     inkscape:pagecheckerboard="true"
     inkscape:zoom="3.337544"
     inkscape:cx="69.708871"
     inkscape:cy="92.192444"
     inkscape:window-x="-11"
     inkscape:window-y="-11"
     inkscape:window-maximized="1"
     inkscape:current-layer="svg6754"
     inkscape:snap-global="false" /><metadata
     id="metadata6760"><rdf:RDF><cc:Work
         rdf:about=""><dc:format>image/svg+xml</dc:format><dc:type
           rdf:resource="http://purl.org/dc/dcmitype/StillImage" /><dc:title></dc:title></cc:Work></rdf:RDF></metadata><defs
     id="defs6758" /><path
     style="fill:none;stroke:#000000;stroke-width:0.89306378px;stroke-linecap:butt;stroke-linejoin:miter;stroke-opacity:1"
     d="M 29.233885,10.549919 C 27.886617,12.078858 5.5897909,55.557748 5.5897909,55.557748 l 26.9930721,8.800171 c 0,0 7.486185,-1.132119 15.380251,-8.464511 5.423735,-5.037831 8.133433,-14.499824 8.133433,-14.499824 8.915371,9.622101 9.058807,11.928737 19.843941,11.320775 1.371632,-0.07732 4.557387,-0.406375 5.379576,-2.529621 C 85.307067,39.888573 93.2256,22.242804 92.167775,21.539438 90.868514,20.675539 29.233885,10.549919 29.233885,10.549919 Z"
     id="path2199"
     inkscape:connector-curvature="0"
     sodipodi:nodetypes="cccscsssc" /><path
     style="fill:none;fill-opacity:1;stroke:#000000;stroke-width:0.89306378px;stroke-linecap:butt;stroke-linejoin:miter;stroke-opacity:1"
     d="m 34.549755,64.756452 c 0,0 1.133926,3.716303 32.24077,-6.108003 3.73618,-1.179981 11.480177,-5.049613 10.27882,-4.682903 C 61.99943,58.565556 57.236272,42.685041 56.772055,45.033913 54.266211,57.713316 35.759887,65.510308 35.239266,64.893349"
     id="path2201"
     inkscape:connector-curvature="0"
     sodipodi:nodetypes="csssc" /><path
     sodipodi:nodetypes="ccsccccccccsscccccc"
     style="fill:none;stroke:#000000;stroke-width:0.89306378px;stroke-linecap:butt;stroke-linejoin:miter;stroke-opacity:1"
     d="m 6.8540425,56.006104 -1.3283982,2.935525 c 0,0 2.9525007,0.482405 1.7647089,0.62784 -1.1877917,0.145436 -2.0485682,2.568269 -2.0485682,2.568269 l 1.2583172,1.669463 -1.8403611,2.323194 1.8119723,0.977394 -1.2682644,2.8868 c 0,0 57.858395,21.581723 61.796281,22.643518 0.597265,0.570047 1.257884,-0.869546 1.257884,-0.869546 0,0 28.226439,-49.611774 28.563403,-53.752062 -0.09004,-0.02786 -0.0463,0.733639 -0.443479,-0.06302 -0.118762,-0.238216 0.639365,-2.227453 0.44371,-2.379868 -0.51159,-0.398531 -1.891606,-1.091547 -1.891606,-1.091547 l -0.435574,-4.955666 0.754643,-3.978506 -1.698613,-0.479873 -0.270739,-3.52873 -1.561344,1.892827"
     id="path2203"
     inkscape:connector-curvature="0" /><path
     style="fill:none;stroke:#000000;stroke-width:0.89306378px;stroke-linecap:butt;stroke-linejoin:miter;stroke-opacity:1"
     d="m 6.0601361,58.666996 c 0,0 19.4957329,6.90457 28.9832939,10.040007 10.613022,3.50738 32.89186,9.598343 32.89186,9.598343 0,0 25.987231,-47.980106 25.29882,-51.633163 -0.05293,-0.28087 0.174442,-0.625575 0.212633,-0.97963 0.05696,-0.528056 -0.04321,-1.065448 0.0016,-1.350566 0.08489,-0.540696 -0.01045,-0.321366 0.08201,0.377256 0.07514,0.567793 1.463874,0.281619 1.549412,1.544876 0.04408,0.650936 -0.506894,2.079488 -0.865126,2.929478 -0.169335,0.401784 -0.295606,0.674295 -0.295606,0.674295 0,0 -0.495353,1.694057 -4.124766,9.204851 -7.696656,15.927625 -19.683789,39.953146 -21.708091,42.02597 -0.183484,0.187885 -0.412853,1.00004 -0.859335,0.887662 C 66.455188,81.792171 65.378098,81.361109 64.244149,81.083179 50.628986,77.746069 6.2726749,60.696373 6.2726749,60.696373 l -1.5365579,0.961158 0.7046615,1.514076 c 0,0 60.5043215,21.525962 62.2860055,21.307808 1.740698,-0.213136 26.275641,-51.672117 27.403486,-54.039449 0.02656,-0.05574 0.04013,-0.08426 0.04013,-0.08426 L 94.700207,34.75683 96.524448,34.992252 66.476169,90.407364 5.6302784,67.339023 4.7484009,68.646832 67.078309,91.490995 c 0,0 29.932501,-52.144153 29.96645,-53.836143"
     id="path2205"
     inkscape:connector-curvature="0"
     sodipodi:nodetypes="cscsssssscsssscccsscccccccc" /><path
     style="fill:none;stroke:#000000;stroke-width:0.89306378px;stroke-linecap:square;stroke-linejoin:miter;stroke-opacity:1"
     d="M 94.915345,34.203383 C 94.312966,34.6991 83.102721,58.424532 83.102721,58.424532 L 70.632022,83.098932 96.161328,37.09645 95.847635,35.555139"
     id="path2209"
     inkscape:connector-curvature="0"
     sodipodi:nodetypes="ccccc" /><path
     sodipodi:nodetypes="cc"
     style="fill:none;stroke:#000000;stroke-width:0.89306378px;stroke-linecap:butt;stroke-linejoin:miter;stroke-opacity:1"
     d="M 5.6754848,64.863408 68.909312,88.306041"
     id="path2211"
     inkscape:connector-curvature="0" /><path
     id="path15112-5-1"
     style="fill:#141414;fill-opacity:1;stroke:none;stroke-width:0.72920042;stroke-linecap:butt;stroke-linejoin:miter;stroke-miterlimit:4;stroke-dasharray:none;stroke-opacity:1"
     d="m 58.427909,27.704913 c 0,0 -1.088607,0.567582 -0.647344,0.860986 0.441266,0.293398 0.774815,0.889507 0.774815,0.889507 0,0 -0.07684,0.791129 0.661895,0.440107 0.738739,-0.351029 1.123536,-0.282335 0.885443,-0.571655 -0.238099,-0.28933 -0.312026,-0.656659 -0.632206,-0.906977 -0.32017,-0.250322 -1.042603,-0.711968 -1.042603,-0.711968 z M 33.933103,50.16022 c 0,0 -2.011283,-1.056592 -1.727196,-2.046816 0.28405,-0.990229 0.308546,-2.209214 0.619415,-2.507847 0.310862,-0.298638 1.269065,-1.458252 1.269065,-1.458252 l 2.405988,-1.394796 1.577021,-0.598429 -0.468033,-0.984981 0.440099,-0.66189 0.569344,-1.025142 2.319829,-1.152622 1.086862,-1.069618 2.819297,-0.132481 1.528706,-1.229471 0.807434,-0.735815 0.321938,-1.863431 0.987893,-1.626492 1.538022,-0.680509 1.614863,-1.471639 c 0,0 0.726506,0.258473 0.773656,-0.06578 0.04712,-0.324264 -0.08732,-0.713119 -0.08732,-0.713119 l 0.8476,0.301556 -0.137396,0.769585 2.440917,-1.10955 0.372565,0.678197 0.95937,-0.204327 0.913374,1.075225 0.674111,-0.169402 c 0,0 0.839441,0.707886 0.934908,1.014671 0.09547,0.306785 1.337173,1.225994 1.563033,2.124817 0.22587,0.898825 0.680513,1.538017 0.680513,1.538017 0,0 0.11993,-0.912213 -0.235176,-1.447785 -0.355098,-0.535568 0.429631,-2.166135 0.429631,-2.166135 l -0.515182,-0.660729 0.924433,-0.489577 c 0,0 0.329496,0.79928 0.54489,0.193859 l 0.258474,-0.726508 0.739887,0.60426 0.108853,0.652582 c 0,0 0.09954,0.103627 0.402255,0.211323 0.30271,0.107697 0.816745,-0.186862 0.902902,-0.42903 l 0.236936,-0.665971 0.787054,0.280014 c 0.423796,0.150776 0.437182,0.496574 0.796361,0.828973 0.359176,0.332407 1.574098,0.560026 1.574098,0.560026 0,0 0.363257,0.129238 0.277101,0.371405 -0.08616,0.242174 -0.550721,2.123062 -0.550721,2.123062 0,0 1.049609,-0.649662 1.135766,-0.891829 0.08616,-0.242168 -0.251479,-0.635118 0.150777,-0.423798 0.402255,0.211324 0.739895,0.604264 0.917447,0.872053 0.177545,0.267779 0.641505,1.455932 0.611814,1.922809 -0.0297,0.466867 0.338795,1.348236 0.338795,1.348236 0,0 0.186863,0.816741 0.359179,0.3324 0.172317,-0.484341 0.663686,-1.673631 0.663686,-1.673631 0,0 -0.08847,-1.66841 0.561193,-0.618808 0.649657,1.049599 1.767363,3.084186 2.061922,3.598216 0.29455,0.514027 1.476868,2.366981 1.476868,2.366981 0,0 -1.037935,3.109217 -1.206213,3.390374 -0.168278,0.281157 -0.68227,0.575731 -1.512403,0.416804 -0.830122,-0.158931 -1.331927,-0.473867 -1.60379,-0.09315 -0.271851,0.380714 -0.310861,0.298636 -0.495408,1.392473 -0.184538,1.093839 -0.626402,3.869476 -1.062428,4.328195 -0.436019,0.458729 -0.935508,2.05437 -1.475161,2.612636 -0.539644,0.558268 -1.4571,-1.072558 -1.945514,-1.041711 -0.171975,0.01086 -0.61711,-0.43522 -0.842028,-1.205289 -0.06486,-0.222078 -0.111408,-0.471101 -0.127805,-0.743879 -0.0373,-0.620295 0.520958,-1.007917 0.594184,-1.610694 0.100072,-0.823468 -0.282937,-1.76781 -0.445089,-1.674895 -0.05019,0.10217 0.01178,0.929236 -0.157728,1.368655 -0.223985,0.580547 -0.702066,0.799812 -0.897624,0.888818 -0.213799,0.0973 -0.882128,0.501672 -1.031278,0.189674 -0.153516,-0.32112 0.212795,-1.358219 0.03587,-1.204989 -0.77703,0.672948 -1.07651,1.611802 -1.91728,0.859988 -1.062664,-0.950226 -4.890179,-5.163007 -5.861571,-6.781922 -1.116466,-1.860681 0.647429,-1.047567 -0.178931,-0.47903 -1.707619,1.174845 -2.905641,8.27976 -4.091672,8.899826 -0.614376,-0.08077 -0.403221,1.025985 -0.615717,1.238399 -0.418514,0.418369 -0.855518,0.113845 -1.10262,-0.335962 -0.372572,-0.678204 -0.595512,-2.735476 -0.595512,-2.735476 l 0.09895,3.172657 c 0,0 1.088789,0.393621 0.57129,1.086138 -1.014394,1.357495 -1.724517,-0.336927 -1.966688,-0.423085 -0.242172,-0.08616 -0.02969,0.46687 -0.0163,0.812666 0.01338,0.345788 0.217709,1.305157 0.217709,1.305157 l -1.162532,0.200246 c 0,0 1.301088,-0.01455 1.214928,0.227629 -2.209217,2.535265 -1.837692,2.479115 -2.931372,2.529156 l -0.47882,-1.209583 0.47882,1.209583 -1.249743,0.214006 -1.206074,-0.629144 -0.964316,0.919106 -5.710461,-1.442852 -3.252488,-1.247236 0.153469,-0.985864 2.598625,0.10755 L 35.505464,52.834 Z m -20.019741,-5.076369 1.022822,-1.341245 -0.08324,-0.916287 0.725347,-0.696812 c 0,0 -0.722433,-0.461645 -0.675275,-0.785894 0.04712,-0.324264 1.098516,-3.087663 1.098516,-3.087663 l 1.314465,0.331248 1.896035,-1.303405 1.830815,1.947266 1.233546,1.32554 1.772034,-0.188021 2.728479,0.766114 1.92397,0.343467 1.447783,-0.235174 c 0,0 0.843519,0.504724 0.710204,1.07114 -0.133276,0.566437 -0.89127,2.888569 -1.098516,3.087664 -0.207234,0.19909 -0.86505,-0.444178 -0.65257,0.108857 0.212472,0.553033 1.065302,1.60671 1.065302,1.60671 l 0.606577,1.170686 c 0,0 0.204329,0.959369 -0.288165,1.193385 -0.492486,0.234019 -0.340593,0.765492 -1.139828,1.094997 -0.265117,0.109288 -3.902393,3.589962 -6.173573,2.782595 -0.504973,-0.179503 -1.929569,1.703763 -3.467681,1.99575 -1.557001,0.295575 -4.105291,1.582125 -5.824635,1.455874 -1.971551,-0.144771 -2.565175,1.019544 -3.654563,0.567872 -1.3101501,-0.543203 2.041359,-7.985686 1.350881,-8.582283 -0.664342,-0.574012 1.196822,-0.812974 0.997872,-1.326588 -0.499868,-1.290432 1.333393,-2.385793 1.333393,-2.385793 z m 49.110622,-18.93306 0.747516,1.423435 0.597702,-1.137754 c 0,0 -0.07245,0.745882 0.354011,-0.452795 l 0.48738,-1.36991 0.475857,-0.795278 c 0,0 0.367172,0.323548 -0.05352,1.234898 -0.420697,0.911357 -0.207467,0.312018 -0.573004,1.339456 -0.365538,1.027437 -0.443751,2.060641 -0.443751,2.060641 0,0 0.220637,0.464327 0.428095,0.152306 0.207467,-0.312018 1.821083,-0.509591 1.821083,-0.509591 l 0.624035,0.414932 c 0.312013,0.207464 1.17562,1.575744 1.518095,1.697588 0.342483,0.121847 1.933028,1.073554 1.234908,0.05352 -0.698129,-1.020035 -0.441267,-0.92865 -1.034849,-1.429204 -0.593573,-0.500551 -0.428095,-0.152306 -0.734345,-0.647091 -0.306258,-0.494788 -0.930293,-0.909719 -0.245335,-0.666028 0.684958,0.243691 1.738732,2.161914 1.137759,0.597702 -0.60098,-1.564216 -0.184412,-0.837268 -0.625678,-1.765918 -0.441269,-0.928643 -0.721183,0.129249 -0.410808,-1.014263 0.310379,-1.143523 -0.361408,-0.61087 0.340841,-1.229142 0.702257,-0.61827 0.837265,-0.184408 0.793641,-0.875129 -0.04363,-0.690725 0.464321,-0.220636 -0.01317,-0.776345 -0.477492,-0.555709 -0.827798,-0.652797 -0.477492,-0.555709 l 0.70925,0.196569 c -0.278339,-0.228206 0.01292,-0.799685 -0.157274,-1.130692 -0.277028,-0.538794 -0.915003,-0.849879 -0.915003,-0.849879 0,0 0.348239,-0.165477 0.500546,-0.593576 l 0.304615,-0.856201 1.002743,0.163837 -0.200059,1.375683 c 0,0 1.425075,0.603464 0.435503,1.215971 -0.989573,0.612507 -0.182769,0.513719 -0.371301,1.31476 -0.188533,0.80104 0.405041,1.301591 0.405041,1.301591 0,0 0.513717,0.182767 0.451158,-0.996976 -0.06257,-1.179747 0.689078,-1.394618 0.689078,-1.394618 0,0 0.684958,0.243692 0.37458,1.387212 -0.310378,1.14352 -0.456922,1.284298 -0.55407,1.828479 -0.09715,0.54418 0.148179,1.210205 0.148179,1.210205 0,0 0.12349,1.008507 0.397643,0.237929 0.274153,-0.770579 0.01893,0.489023 0.456922,-1.284298 0.437987,-1.77332 0.628163,-1.223374 0.468449,-1.85894 C 72.959248,22.532605 72.983938,22.734304 72.622529,22.123436 72.26112,21.51257 72.224895,21.88551 72.26112,21.51257 c 0.03623,-0.372942 0.445395,-0.709656 0.445395,-0.709656 0,0 0.220629,0.464324 0.525243,-0.391874 0.304614,-0.856199 0.824103,-0.960749 0.310378,-1.14352 -0.513716,-0.182768 0.0173,-0.861961 -0.941812,-0.335074 -0.95912,0.526885 -0.799405,1.162451 -1.050504,0.783744 -0.25109,-0.378703 0.770579,0.274153 -0.551576,-1.16081 -1.322164,-1.434967 -1.034849,-1.429204 -1.438247,-1.379809 -0.403406,0.04939 0.422333,0.439628 -1.191275,0.637204 -1.613608,0.197575 -1.136116,0.753285 -1.613608,0.197575 -0.477491,-0.555708 0.690722,-0.04363 -0.734354,-0.647094 -1.425075,-0.603464 -2.819689,-1.292548 -3.333405,-1.475316 -0.513725,-0.182771 0.01153,-0.574643 -0.513725,-0.182771 -0.325894,0.243137 -0.484625,1.029151 -0.661553,0.834289 -0.18207,-0.200524 -1.121645,-0.298792 0.02977,-0.736832 0.485124,-0.184552 -1.426674,-0.384198 -1.941132,-0.04068 l -0.464945,0.212826 -0.519488,0.104551 -0.184404,-0.837265 -0.112366,0.891433 -0.710657,0.132994 -0.569956,-0.362528 c 0,0 -0.200059,1.375683 -0.689086,1.394614 -0.489019,0.01893 -1.002735,-0.163833 -1.002735,-0.163833 0,0 -0.139145,1.20444 -0.451158,0.996976 -0.312022,-0.207468 -0.50219,-0.757411 -0.50219,-0.757411 0,0 -0.207466,0.312018 -0.188532,0.80104 0.01893,0.48902 0.593574,0.500551 0.09302,1.094125 -0.500554,0.593573 0.01317,0.776344 -0.6224,0.936052 -0.635562,0.159711 -0.470084,0.507957 -0.934413,0.728589 -0.464321,0.220635 -0.635562,0.159712 -0.87349,0.557349 -0.237929,0.397638 -0.152308,0.428099 -0.390236,0.825737 -0.237928,0.397637 0.416569,0.726948 -0.59193,0.850435 -1.008507,0.123485 -2.053238,0.61991 -2.462408,0.956623 -0.40917,0.336715 -1.509053,0.717062 -1.74698,1.114699 -0.237928,0.397637 -0.243692,0.684959 -0.48162,1.082596 -0.237928,0.397637 0.538414,0.384469 -0.451158,0.996976 -0.989573,0.612507 -0.182769,0.513719 -1.257962,1.095764 -1.075193,0.582045 -1.105655,0.667665 -1.14188,1.040607 -0.03623,0.37294 0.709656,0.445392 -0.249455,0.972279 -0.959111,0.526888 -1.105655,0.667665 -1.172342,1.126227 -0.06669,0.458557 -0.158079,0.715417 -0.158079,0.715417 0,0 -0.127609,0.629801 -0.365537,1.027438 -0.23792,0.39764 -0.506309,0.880897 -0.860319,1.333693 -0.354011,0.452795 -0.26839,0.483257 -0.829867,1.24807 -0.561468,0.764816 -0.531007,0.679196 -0.652853,1.021675 -0.121845,0.342479 0.825738,0.390235 0.825738,0.390235 l 2.199774,-0.76069 1.583147,-0.111957 c 0,0 0.568884,0.298853 0.690729,-0.04363 0.121846,-0.34248 0.342475,0.121844 0.896545,-1.706634 0.55407,-1.828479 2.489591,-3.744214 2.489591,-3.744214 l 2.413012,-1.360026 1.490118,-1.206083 0.139145,-1.204441 1.149279,0.02306 1.233264,-1.297465 -0.06256,-1.179744 c 0,0 -0.361409,-0.610868 -0.178641,-1.124587 0.182769,-0.513718 1.28678,-2.53237 1.28678,-2.53237 l 0.243692,-0.684959 -1.551041,1.377323 0.982165,-1.676172 1.551049,-1.37732 1.35511,-1.639945 0.01317,0.776344 1.404498,-1.236546 0.671795,-0.53265 v 0 l 0.361409,0.610868 c 0,0 -3.43881,2.345475 -3.682501,3.030433 -0.243692,0.684959 -1.488483,2.557067 -1.671252,3.070786 -0.182769,0.513719 -0.08975,1.607844 -0.08975,1.607844 0,0 -0.188532,0.80104 -0.169598,1.290063 0.01893,0.489022 -0.08398,1.320524 -0.08398,1.320524 0,0 -0.01154,0.57464 -0.90396,0.642966 -0.892425,0.06833 -1.326284,0.203342 -1.105655,0.667665 0.220637,0.464327 1.406149,0.114445 1.406149,0.114445 l 1.667124,-1.432481 1.459664,-1.12046 1.546922,0.260984 1.236543,1.404505 0.654496,0.329311 c 0,0 0.525252,-0.391872 0.677559,-0.819971 0.152308,-0.428099 0.57464,0.01153 0.133373,-0.917122 -0.441266,-0.928649 -0.943455,-1.686061 -0.435502,-1.215971 0.507952,0.470089 1.285938,1.807907 1.285938,1.807907 l -0.194304,1.088359 0.685355,0.492515 c -0.30585,-0.245968 0.364302,-2.129605 0.364302,-2.129605 z"
     inkscape:connector-curvature="0"
     sodipodi:nodetypes="cccscccccccccccccccccccccccccccccccccccccscccsscsccscsccccsccccsccccccssscssssssscssccssccccccccccccccccccccccccccccccccsccscccscccccccsccsscscssssssscssssccccscccsscscsscssssscssssssssssccscccccccscscssssssssssssssscsssscccsscccccccscccccccccccsscscssccccccssscccc" /><path
     inkscape:connector-curvature="0"
     id="path15341"
     d="m 48.282282,64.817419 -5.61006,0.105228 -3.269352,1.48612 0.534874,1.834673 c 0,0 0.317349,-0.891993 0.803888,-0.718894 0.486548,0.173102 0.933317,0.971532 0.933317,0.971532 l 2.205815,-0.03741 1.667031,-0.320454 0.891992,0.317349 0.713438,1.076013 2.229209,0.153617 0.375049,-1.054173 0.960604,-0.389075 1.807379,0.82573 1.805826,-0.453783 c 0,0 0.272116,0.0055 0.966068,-0.661195 0.693953,-0.666652 1.076012,-0.713433 1.076012,-0.713433 l 4.879321,-0.897751 1.805314,2.261904 7.027434,0.408219 0.836648,-2.351617 c 0,0 0.380489,-1.326302 -0.163734,-1.337214 -0.544239,-0.01092 -1.562551,0.540335 -1.759045,0.835845 -0.19651,0.295503 0.637808,0.775042 -0.421829,0.672113 -1.059636,-0.102931 -1.627261,-0.304878 -1.627261,-0.304878 l -0.736824,-1.267041 -0.589472,0.886531 -0.729813,-0.259649 -8.672641,-1.721645 -5.893857,1.132976 -7.765326,-0.322165 -3.026087,1.572668 0.332924,2.402306 c 0,0 0.357119,-1.517324 0.733723,-1.291984 0.376602,0.225345 1.587491,0.930208 1.587491,0.930208 l 1.690426,-0.129422"
     style="fill:#000000;fill-opacity:1;stroke:#000000;stroke-width:0.68855542px;stroke-linecap:butt;stroke-linejoin:miter;stroke-opacity:1" /><path
     style="fill:#000000;fill-opacity:1;stroke:#000000;stroke-width:0;stroke-linecap:butt;stroke-linejoin:miter;stroke-miterlimit:4;stroke-dasharray:none;stroke-opacity:1"
     d="m 62.556778,59.558276 c -0.104132,0.716051 -0.277688,1.909469 -0.277688,1.909469 l -0.41224,1.158707 c 0,0 1.052862,-0.278104 1.090576,-0.666338 0.03771,-0.388236 0.131993,-1.358825 0.131993,-1.358825 l 0.318812,0.515078 -0.205267,1.282549 -0.256658,0.862613 0.830043,-0.357377 0.482516,-0.932877 0.04671,-0.836893 0.283245,0.05056 0.293105,0.305106 0.384387,-0.51593 c 0,0 0.06639,-0.327826 0.015,-0.747762 -0.05142,-0.419948 -0.445656,-0.158553 -0.08999,-0.734908 0.355673,-0.576353 0.826193,-0.911019 0.826193,-0.911019 0,0 0.788471,-0.522787 0.658622,-0.01671 -0.129815,0.506088 0.04243,0.868606 -0.25968,1.012157 -0.302105,0.143552 -0.858748,0.296959 -0.858748,0.296959 0,0 0.315807,0.664628 0.296955,0.858747 -0.01883,0.194128 -0.11396,0.461522 -0.11396,0.461522 l -0.371521,0.620922 -0.601211,0.137549 -0.282425,0.652619 0.175261,0.212974 0.848896,-0.551497 c 0,0 0.464516,-0.03556 0.66763,-0.465365 0.203148,-0.429791 0.743058,-1.241836 0.743058,-1.241836 0,0 -0.190264,0.534788 0.06942,-0.477366 0.259688,-1.012155 0.32311,-1.190418 0.32311,-1.190418 0,0 0.752902,-0.9873 0.848895,-0.551495 0.09598,0.435801 0.35737,0.830036 0.293949,1.008298 -0.06342,0.178263 -0.04071,0.537789 0.137557,0.601212 0.178258,0.06342 0.690341,-0.105839 0.899458,-0.834746 0.209092,-0.728916 0.015,-0.747761 0.259689,-1.012154 0.244686,-0.264394 -0.08313,-0.330818 0.518077,-0.468367 0.601212,-0.13755 1.736356,-0.788031 1.682787,-0.35523 -0.05357,0.432801 0.03942,1.018156 -0.05871,1.435103 -0.0981,0.416956 -0.07842,0.926024 -0.271694,1.610362 -0.193237,0.684351 -0.399357,1.263704 -0.634215,1.782626 -0.234859,0.518922 -0.406237,0.859603 -0.351791,1.130007 0.05442,0.270394 0.67534,0.641921 0.849749,0.151699 0.174409,-0.490222 0.576348,0.355671 0.730199,-1.346824 0.153843,-1.702497 0.22027,-2.03031 0.254978,-2.268995 0.03468,-0.238693 -0.009,0.448657 0.05357,-0.432801 0.06257,-0.881458 0.153843,-1.702497 0.153843,-1.702497 l 1.53102,0.494499 c 0,0 1.339973,0.326109 0.785474,-0.373234 -0.554499,-0.699343 -0.01071,-0.957734 -0.905022,-1.12529 -0.894308,-0.167553 -1.338162,-0.966532 -1.302259,-0.714345 0.110885,0.778888 -0.180006,1.193216 -1.03275,1.191067 -0.852754,-0.0021 -6.670939,1.636647 -6.950333,2.139725 -0.279402,0.503075 -2.248625,0.308972 -2.248625,0.308972 z"
     id="path2828"
     inkscape:connector-curvature="0"
     sodipodi:nodetypes="cccscccccccccccccccccccccccccsccsscscsccscsccsccssssccc" /><path
     style="fill:#000000;fill-opacity:1;stroke:none;stroke-width:0.89306378px;stroke-linecap:butt;stroke-linejoin:miter;stroke-opacity:1"
     d="m 71.567837,60.710959 -0.512415,2.001597 -1.979522,-1.1841 c 0,0 -0.845992,-0.01697 -0.198767,-0.638739 0.647225,-0.621768 1.190831,-1.351403 1.190831,-1.351403 0,0 0.147263,-1.012649 0.110905,-1.309597 -0.03636,-0.296946 0.129089,-1.161121 0.129089,-1.161121 l 1.214454,-0.419962 0.973251,1.056288 z"
     id="path2830"
     inkscape:connector-curvature="0"
     sodipodi:nodetypes="cccscccccc" /><ellipse
     ry="6.947298"
     rx="6.513092"
     cy="9.5957613"
     cx="39.226936"
     id="path15343-5-6-3"
     style="opacity:1;fill:none;fill-opacity:1;stroke:#000000;stroke-width:0.92630643;stroke-linecap:round;stroke-linejoin:round;stroke-miterlimit:4;stroke-dasharray:none;stroke-opacity:1;paint-order:stroke fill markers"
     transform="rotate(19.584319)" /><ellipse
     ry="4.7344909"
     rx="4.4385848"
     cy="9.5512028"
     cx="39.291725"
     id="path15343-2-9-0-2"
     style="opacity:1;fill:none;fill-opacity:1;stroke:#000000;stroke-width:0.63126546;stroke-linecap:round;stroke-linejoin:round;stroke-miterlimit:4;stroke-dasharray:none;stroke-opacity:1;paint-order:stroke fill markers"
     transform="rotate(19.584319)" /><path
     inkscape:connector-curvature="0"
     id="path15375-3-4-3"
     d="m 35.233055,20.845835 4.914005,-5.02948 1.187136,0.381212 2.075005,-0.293768 -1.052401,1.71301 -0.307238,1.596353 -4.698897,1.752261 -3.57781,1.309968 z"
     style="fill:#000000;fill-opacity:1;stroke:#000000;stroke-width:0.46315321px;stroke-linecap:butt;stroke-linejoin:miter;stroke-opacity:1"
     sodipodi:nodetypes="ccccccccc" /><path
     inkscape:connector-curvature="0"
     id="path15377-4-8-8"
     d="M 37.891301,27.537058 37.838265,30.1425 35.478723,29.136683 Z"
     style="fill:#000000;fill-opacity:1;stroke:#000000;stroke-width:0.46315321px;stroke-linecap:butt;stroke-linejoin:miter;stroke-opacity:1" /><path
     inkscape:connector-curvature="0"
     id="path15379-2-6-7"
     d="m 28.13089,26.645401 -1.438114,2.315009 3.028306,-1.257666 z"
     style="fill:#000000;fill-opacity:1;stroke:#000000;stroke-width:0.46315321px;stroke-linecap:butt;stroke-linejoin:miter;stroke-opacity:1" /><path
     inkscape:connector-curvature="0"
     id="path15381-9-7-1"
     d="m 29.691776,16.385698 5.05e-4,-2.255437 c 0,0 3.231291,1.807556 2.64703,1.722588 -0.584261,-0.08497 -2.647535,0.532849 -2.647535,0.532849 z"
     style="fill:#000000;fill-opacity:1;stroke:#000000;stroke-width:0.46315321px;stroke-linecap:butt;stroke-linejoin:miter;stroke-opacity:1" /><path
     inkscape:connector-curvature="0"
     id="path15449-0-3"
     d="m 29.806692,26.205814 -0.461352,1.05249 0.375742,0.44444 0.788382,-1.029646 -0.788382,1.029646 0.911498,0.578393 0.422787,-1.066212 -0.400536,1.247932 1.157073,0.411658 0.196563,-1.407403 -0.103106,1.266849 1.046559,0.111634 0.06194,-1.151141 0.0152,1.178584 1.126294,0.0096 -0.296307,-1.365498 0.346002,1.47008 0.949766,-0.226959 -0.323751,-1.288361 0.647662,1.664734 0.953325,-0.790984 -0.455777,-1.161528 0.337472,1.249791 1.012446,-0.769523 -0.508068,-1.136681 0.444651,1.070668 1.210484,-0.959772 -0.760995,-0.792156 0.835536,0.949029 0.777696,-1.331003 -0.857048,-0.522172 0.923061,0.458756 0.158731,-0.812548 -0.686453,-0.635282 1.002796,0.35677 0.166522,-1.200836 -0.842588,0.04784 0.881157,-0.03411 -0.07268,-0.894878 -0.660868,0.02558 0.663464,-0.155015 0.186175,-0.889685 -0.933448,0.05896 0.906005,0.01818 -0.122377,-0.999461 -0.87263,0.254403 0.911199,-0.240681 -0.28778,-1.145209 -1.597268,-2.349761 -0.79735,1.019853 0.874488,-0.992409 -0.893021,-0.665323 -0.427974,1.325071 0.463947,-1.18192 -1.049893,-0.590782 -0.235132,1.393681 0.18284,-1.368834 -0.928254,-0.199897 -0.1528,1.162266 0.114231,-1.175988 -1.264252,-0.232535 -0.02337,1.164863 -0.05636,-1.062877 -0.919726,0.02039 0.183197,1.194903 -0.221766,-1.208625 -0.768047,0.204708 0.478028,1.343248 -0.464306,-1.381817 -0.954961,0.485818 0.40868,0.927517 -0.46097,-0.90267 -0.707228,0.400151 0.40868,0.927517 -0.535512,-1.059542 -0.885612,0.901548 0.667537,0.93271 -0.722425,-0.778433 -0.767309,0.813286 0.74987,0.701295 -0.917868,-0.717614 -0.472478,0.96163 c 0,0 1.229017,0.697961 1.074741,0.643074 -0.154276,-0.05489 -1.127032,-0.618226 -1.127032,-0.618226 l -0.488796,1.129629 1.137419,0.100508 -1.16746,0.106059 -0.172454,0.851117 1.148545,0.191369 -1.294292,-0.02597 -0.09791,1.00799 1.335458,-0.08974 -1.260916,0.246613 0.174668,0.974615 1.211222,-0.351196 -1.188971,0.532916 0.331541,0.900072 1.004655,-0.381235 -0.918989,0.628969 0.23475,0.561479 1.136681,-0.508068 -1.012445,0.769523 0.411276,0.798087 1.012445,-0.769523 -0.792155,0.760995 0.391622,0.486938 z"
     style="fill:none;stroke:#000000;stroke-width:0.23157661;stroke-linecap:butt;stroke-linejoin:bevel;stroke-miterlimit:4;stroke-dasharray:none;stroke-opacity:1" /></svg>