<?xml version="1.0" encoding="UTF-8" standalone="no"?>
<svg
   xmlns:dc="http://purl.org/dc/elements/1.1/"
   xmlns:cc="http://creativecommons.org/ns#"
   xmlns:rdf="http://www.w3.org/1999/02/22-rdf-syntax-ns#"
   xmlns:svg="http://www.w3.org/2000/svg"
   xmlns="http://www.w3.org/2000/svg"
   version="1.1"
   x="0px"
   y="0px"
   viewBox="0 0 100 100"
   xml:space="preserve"
   id="svg6754"
   width="100"
   height="100"><metadata
     id="metadata6760"><rdf:RDF><cc:Work
         rdf:about=""><dc:format>image/svg+xml</dc:format><dc:type
           rdf:resource="http://purl.org/dc/dcmitype/StillImage" /><dc:title></dc:title></cc:Work></rdf:RDF></metadata><defs
     id="defs6758" /><path
     id="path15122"
     d="M 5.3983324,17.897878 20.969512,3.5700876 50.114872,14.407528 75.679092,0.90117763 93.635052,19.021628 l 3.08618,70.23427 -16.55315,-13.76591 -22.75289,23.763 -27.4734,-19.49062 -21.5975596,14.69087 z"
     style="fill:none;fill-opacity:1;stroke:#000000;stroke-width:2;stroke-linecap:butt;stroke-linejoin:miter;stroke-miterlimit:4;stroke-dasharray:none;stroke-opacity:1" /><g
     style="fill:#000000;fill-opacity:1;stroke-width:1.003003;stroke-miterlimit:4;stroke-dasharray:none"
     transform="translate(-3.4070776,-2.7660324)"
     id="g15120"><path
       d="m 68.042083,76.598869 6.01041,-2.916815 c 0,0 0.44194,-0.265165 1.14905,-0.353554 0.70711,-0.08839 2.38649,-0.707106 2.38649,-0.707106 l 2.65165,-1.502602 c 0,0 0.0884,-0.53033 0.44194,-0.795495 0.35355,-0.265165 0,-0.53033 0.79549,-0.618719 0.7955,-0.08839 0.0884,0.618719 1.41422,-0.353553 1.32582,-0.972272 2.29809,-3.093592 2.82842,-2.651651 0.53033,0.441942 1.50261,2.209709 0.97228,2.386486 -0.53033,0.176776 -1.76777,-0.08839 -0.88389,0.618718 0.88389,0.707107 1.14905,1.679379 1.76777,0.618719 0.61872,-1.060661 1.32582,-0.265165 0.79549,-1.856156 -0.53033,-1.59099 -0.44194,-1.59099 -0.88388,-2.032932 -0.44194,-0.441941 -1.06066,-0.441941 0.44194,-0.353553 1.5026,0.08839 1.85616,0.265165 2.20971,0.707107 0.35355,0.441941 0.17678,0.707106 0.70711,0.972272 0.53033,0.265165 1.32582,-0.530331 0.61872,1.149048 -0.70711,1.679379 0.61872,1.325825 -1.14905,2.032932 -1.76777,0.707107 -1.5026,0.618718 -2.2981,0.707107 -0.79549,0.08839 -0.53033,0.265165 -1.5026,0.618718 -0.97227,0.353554 1.23744,-0.265165 -1.85616,0.441942 -3.09359,0.707107 -0.97227,0.618718 -4.15425,1.237437 -3.18198,0.618718 -3.0052,-0.441942 -5.39169,0.707107 -2.38648,1.149048 -5.03813,2.386485 -5.03813,2.386485 0,0 -0.0884,0.176777 -1.59099,0.53033 -1.50261,0.353554 -1.76777,1.06066 -2.03294,0.353554 -0.26516,-0.707107 1.59099,-1.325826 1.59099,-1.325826 z m -0.35355,-48.260038 c 0,0 -1.14905,1.237437 -0.44194,1.414214 0.70711,0.176776 1.41421,0.795495 1.41421,0.795495 0,0 0.26517,1.06066 1.06066,0.265165 0.7955,-0.795495 1.32583,-0.883884 0.88389,-1.149049 -0.44195,-0.265165 -0.70711,-0.707107 -1.23744,-0.883883 -0.53033,-0.176777 -1.67938,-0.441942 -1.67938,-0.441942 z m -21.38998,40.393475 c 0,0 -3.09359,-0.441941 -3.18198,-1.856155 -0.0884,-1.414214 -0.61872,-3.005204 -0.35355,-3.535534 0.26516,-0.53033 0.97227,-2.474874 0.97227,-2.474874 l 2.47487,-2.916815 1.76777,-1.502602 -1.06066,-1.06066 0.26516,-1.06066 0.26517,-1.590991 2.47487,-2.563262 0.91533,-1.887224 3.59248,-1.471533 1.41421,-2.298097 0.70711,-1.325826 -0.44194,-2.563262 0.53033,-2.563262 1.67938,-1.59099 1.41421,-2.65165 c 0,0 1.06066,0 0.97227,-0.441942 -0.0884,-0.441942 -0.44194,-0.883884 -0.44194,-0.883884 h 1.23744 l 0.17677,1.060661 2.65165,-2.563263 0.7955,0.707107 1.14905,-0.707107 1.67938,0.972272 0.79549,-0.53033 c 0,0 1.41421,0.53033 1.67938,0.883884 0.26516,0.353553 2.2981,0.972272 3.0052,2.032932 0.70711,1.06066 1.59099,1.679378 1.59099,1.679378 0,0 -0.26516,-1.237437 -0.97227,-1.767767 -0.7071,-0.53033 -0.44194,-3.005203 -0.44194,-3.005203 l -0.97227,-0.618719 0.97227,-1.06066 c 0,0 0.7955,0.883883 0.7955,0 v -1.06066 l 1.23743,0.441941 0.44194,0.795496 c 0,0 0.17678,0.08839 0.61872,0.08839 0.44194,0 0.97227,-0.618719 0.97227,-0.972272 v -0.972272 h 1.14905 c 0.61872,0 0.7955,0.441942 1.41422,0.707107 0.61871,0.265165 2.29809,0 2.29809,0 0,0 0.53033,0 0.53033,0.353553 0,0.353554 0.26517,3.005204 0.26517,3.005204 0,0 1.06066,-1.325825 1.06066,-1.679379 0,-0.353553 -0.61872,-0.707106 0,-0.618718 0.61872,0.08839 1.23744,0.441942 1.59099,0.707107 0.35355,0.265165 1.5026,1.59099 1.67938,2.209708 0.17677,0.618719 1.06066,1.590991 1.06066,1.590991 0,0 0.61872,0.972272 0.61872,0.265165 0,-0.707107 0.0884,-2.474874 0.0884,-2.474874 0,0 -0.88388,-2.12132 0.44195,-1.06066 1.32582,1.06066 3.71231,3.18198 4.33103,3.71231 0.61871,0.530331 3.0052,2.386486 3.0052,2.386486 0,0 0.0884,4.507806 0,4.949747 -0.0884,0.441942 -0.61872,1.06066 -1.76777,1.237437 -1.14905,0.176777 -1.94454,0 -2.12132,0.618719 -0.17677,0.618718 -0.26516,0.53033 0,2.032932 0.26517,1.502602 0.97227,5.303301 0.61872,6.098796 -0.35355,0.795495 -0.26516,3.093592 -0.70711,4.065864 -0.44194,0.972272 1.32583,2.209709 0.70711,2.474874 -0.61872,0.265165 -1.5026,0.353553 -2.03293,0.972272 -0.53033,0.618718 -0.70711,1.414213 -0.88389,2.298097 -0.17677,0.883883 1.41422,3.093592 -0.61871,1.149048 -2.03294,-1.944543 -4.41942,-5.391689 -5.12653,-5.922019 -0.7071,-0.53033 -1.5026,-1.149048 -1.94454,-1.06066 -0.44194,0.08839 -1.5026,0.618718 -2.38649,1.325825 -0.88388,0.707107 -4.06586,-1.06066 -4.06586,-1.06066 0,0 0.0884,1.237437 0.44194,2.032932 0.35355,0.795495 1.14905,1.502602 0.35355,1.59099 -0.79549,0.08839 -0.53033,1.149049 -1.41421,-0.265165 -0.88388,-1.414213 -0.97227,-1.59099 -0.97227,-1.59099 0,0 -0.35355,1.06066 -0.26517,1.944544 0.0884,0.883883 0.70711,2.12132 -0.44194,1.414213 -1.14905,-0.707107 -0.97227,-0.883883 -1.67938,-1.149048 -0.7071,-0.265165 -0.35355,-1.237437 -0.7071,-0.265165 -0.35356,0.972271 1.59099,1.502601 -0.88389,2.032932 -2.47487,0.53033 -2.12132,1.237436 -2.91681,0.53033 -0.7955,-0.707107 -2.03293,-3.270369 -2.03293,-3.270369 l 1.59099,4.065864 c 0,0 1.14904,0.08839 0.26516,0.883883 -0.88388,0.795495 -1.41421,0.618719 -1.76777,0.618719 -0.35355,0 0.17678,0.618718 0.35356,1.06066 0.17677,0.441942 0.88388,1.59099 0.88388,1.59099 l -1.41421,0.795495 c 0,0 1.67938,-0.618718 1.67938,-0.265165 0,0.353554 0.7071,1.944544 0.7071,1.944544 l 0.26517,1.414213 0.79333,1.990533 -2.68911,0.944742 -0.44982,-2.179 -1.25939,0.514056 -1.17819,-1.34675 1.17819,1.34675 -1.52088,0.853524 -1.85304,-0.259247 -0.82591,1.635681 -8.06548,0.763018 -4.78997,-0.116726 -0.25565,-1.348357 3.41717,-1.058728 -1.8583,-1.562719 z m -28.28427,2.651651 0.707106,-2.209709 -0.53033,-1.149048 0.618719,-1.237437 c 0,0 -1.149049,-0.265165 -1.237437,-0.707107 -0.08839,-0.441942 0,-4.507806 0,-4.507806 l 1.856155,-0.176777 1.856155,-2.563262 3.270369,1.679379 2.209709,1.149049 2.209709,-1.060661 3.889085,-0.265165 2.65165,-0.441941 1.76777,-0.972272 c 0,0 1.32582,0.265165 1.41421,1.06066 0.0884,0.795495 0.17678,4.154252 0,4.507806 -0.17677,0.353553 -1.32582,-0.176777 -0.79549,0.441941 0.53033,0.618719 2.12132,1.590991 2.12132,1.590991 l 1.32582,1.237437 c 0,0 0.70711,1.149048 0.17678,1.679378 -0.53033,0.53033 -0.0884,1.149049 -0.97227,1.944544 -0.29318,0.263862 -3.40199,6.451477 -6.71747,6.452343 -0.737165,1.93e-4 -1.715027,3.097554 -3.573661,4.1851 -1.881451,1.100896 -4.590636,3.943048 -6.876965,4.572149 -2.621696,0.721381 -2.854169,2.50392 -4.47417,2.420858 -1.948285,-0.09989 -1.036405,-11.289906 -2.206269,-11.744697 -1.12558,-0.437575 1.176152,-1.605346 0.681522,-2.179215 -1.242736,-1.441822 0.627983,-3.706538 0.627983,-3.706538 z m 54.91382,-47.178165 1.625,1.5 0.25,-1.75 c 0,0 0.25,1 0.25,-0.75 v -1.999999 l 0.25,-1.25 c 0,0 0.625,0.25 0.5,1.624999 -0.125,1.375 -0.125,0.5 -0.125,2 0,1.5 0.375,2.875 0.375,2.875 0,0 0.5,0.5 0.625,0 0.125,-0.5 2.125,-1.5 2.125,-1.5 l 1,0.25 c 0.5,0.125 2.25,1.5 2.75,1.5 0.5,0 3,0.5 1.625,-0.5 -1.375,-1 -1,-1 -2,-1.375 -1,-0.375 -0.625,0 -1.25,-0.5 -0.625,-0.5 -1.625,-0.75 -0.625,-0.75 1,0 3.25,2 1.75,0.25 -1.5,-1.75 -0.625,-1 -1.625,-2 -1,-0.999999 -0.875,0.5 -1,-1.124999 -0.125,-1.625 -0.75,-0.625 -0.125,-1.75 0.625,-1.125 1,-0.625 0.625,-1.5 -0.375,-0.875 0.5,-0.5 -0.375,-1 -0.875,-0.5 -1.37372,-0.464308 -0.875,-0.5 l 1.00976,-0.07227 c -0.46592,-0.167406 -0.35196,-1.042276 -0.72512,-1.392763 -0.60742,-0.570505 -1.57761,-0.679503 -1.57761,-0.679503 0,0 0.375,-0.375 0.375,-1 v -1.25 l 1.375,-0.25 0.375,1.875 c 0,0 2.125,0.125 1.125,1.375 -1,1.25 0,0.75 0.125,1.875 0.125,1.125 1.125,1.5 1.125,1.5 0,0 0.75,0 0.125,-1.5 -0.625,-1.5 0.25,-2.125 0.25,-2.125 0,0 1,0 1.125,1.625 0.125,1.625 0,1.875 0.125,2.625 0.125,0.75 0.75,1.5 0.75,1.5 0,0 0.625,1.25 0.625,0.125 0,-1.125 0.25,0.625 0,-1.875 -0.25,-2.5 0.25,-1.875 -0.25,-2.625 -0.5,-0.75 -0.375,-0.5 -1.125,-1.125 -0.75,-0.625 -0.625,-0.125 -0.75,-0.625 -0.125,-0.5 0.25,-1.125 0.25,-1.125 0,0 0.5,0.5 0.5,-0.75 0,-1.25 0.625,-1.625 -0.125,-1.625 -0.75,0 -0.375,-1.125 -1.375,0 -1,1.125 -0.5,1.875 -1,1.5 -0.5,-0.375 1.125,0 -1.25,-1.25 -2.375,-1.25 -2,-1.375 -2.5,-1.125 -0.5,0.25 0.75,0.375 -1.25,1.375 -2,1 -1.125,1.5 -2,1 -0.875,-0.5 0.875,-0.375 -1.25,-0.5 -2.125,-0.125 -4.25,-0.375 -5,-0.375 -0.75,0 -0.25,-0.75 -0.75,0 -0.31023,0.465339 -0.15354,1.557125 -0.47266,1.386175 -0.3284,-0.175917 -1.59132,0.12993 -0.30114,-0.968593 0.54358,-0.462831 -3.067,-1.141379 -3.57531,-0.459014 l 0.53661,1.791432 -0.625,0.375 -0.625,-1 -0.125,-0.875 -1.25,0.5 -0.125,1.875 c 0,0 0.375,1.875 -0.25,2.125 -0.625,0.25 -1.375,0.25 -1.375,0.25 0,0 0.375,1.625 -0.125,1.5 -0.5,-0.125 -1,-0.75 -1,-0.75 0,0 -0.125,0.5 0.125,1.125 0.25,0.625 1,0.375 0.625,1.375 -0.375,1 0.375,1 -0.375,1.5 -0.75,0.5 -0.375,0.874999 -0.875,1.374999 -0.5,0.5 -0.75,0.5 -0.875,1.125 -0.125,0.625 0,0.625 -0.125,1.25 -0.125,0.625 0.875,0.75 -0.375,1.375 -1.25,0.625 -2.375,1.75 -2.75,2.375 -0.375,0.625 -1.625,1.625 -1.75,2.25 -0.125,0.625 0,1 -0.125,1.625 -0.125,0.625 0.875,0.25 -0.125,1.5 -1,1.25 0,0.75 -1.125,2 -1.125,1.25 -1.125,1.375 -1,1.875 0.125,0.5 1.125,0.25 0.125,1.375 -1,1.125 -1.125,1.375 -1,2 0.125,0.625 0.125,1 0.125,1 0,0 0.125,0.875 0,1.5 -0.125,0.625 -0.25,1.375 -0.5,2.125 -0.25,0.750001 -0.125,0.750001 -0.5,2.000001 -0.375,1.25 -0.375,1.125 -0.375,1.625 0,0.5 1.25,0.125 1.25,0.125 l 2.5,-2 2,-0.875 c 0,0 0.875,0.125 0.875,-0.375 0,-0.500001 0.5,0 0.375,-2.625001 -0.125,-2.625 1.5,-6 1.5,-6 l 2.5,-2.875 1.375,-2.25 -0.375,-1.625 1.5,-0.5 1,-2.25 -0.625,-1.5 c 0,0 -0.75,-0.625 -0.75,-1.375 0,-0.75 0.5,-3.874999 0.5,-3.874999 v -1 l -1.375,2.499999 0.5,-2.624999 1.375,-2.5 1,-2.75 0.375,1 1.25,-2.25 0.625,-1 v 0 l 0.75,0.625 c 0,0 -3.375,4.625 -3.375,5.625 0,1 -0.75,3.999999 -0.75,4.749999 0,0.75 0.625,2.125 0.625,2.125 0,0 0.125,1.125 0.375,1.75 0.25,0.625 0.5,1.75 0.5,1.75 0,0 0.25,0.75 -0.875,1.25 -1.125,0.5 -1.625,0.875 -1.125,1.375 0.5,0.5 1.875,-0.5 1.875,-0.5 l 1.5,-2.625 1.375,-2.125 2.125,-0.375 2.25,1.25 1,0.125 c 0,0 0.5,-0.75 0.5,-1.375 0,-0.625 0.75,-0.25 -0.25,-1.25 -1,-1 -2,-1.75 -1.125,-1.375 0.875,0.375 2.5,1.75 2.5,1.75 l 0.25,1.5 1.11523,0.322268 c -0.50976,-0.177732 -0.50976,-2.927732 -0.50976,-2.927732 z"
       style="fill:#000000;fill-opacity:1;stroke:none;stroke-width:1.003003;stroke-linecap:butt;stroke-linejoin:miter;stroke-miterlimit:4;stroke-dasharray:none;stroke-opacity:1"
       id="path15112" /></g><path
     id="path15329"
     d="m 20.969512,3.5700876 c 0.91631,5.04409 8.97228,76.1922804 8.97228,76.1922804"
     style="fill:none;stroke:#000000;stroke-width:2;stroke-linecap:butt;stroke-linejoin:miter;stroke-miterlimit:4;stroke-dasharray:none;stroke-opacity:1" /><path
     id="path15331"
     d="M 75.679092,0.90117763 80.168082,75.489988"
     style="fill:none;stroke:#000000;stroke-width:2;stroke-linecap:butt;stroke-linejoin:miter;stroke-miterlimit:4;stroke-dasharray:none;stroke-opacity:1" /><path
     id="path15341"
     d="m 61.540192,75.752988 -7.625,2.875 -3.75,3.625 1.625,2.25 c 0,0 0,-1.375 0.75,-1.375 0.75,0 1.75,0.875 1.75,0.875 l 3,-1.125 2.125,-1.25 h 1.375 l 1.5,1.125 3.125,-0.875 v -1.625 l 1.125,-1 2.875,0.25 2.25,-1.5 c 0,0 0.375,-0.125 1,-1.375 0.625,-1.25 1.125,-1.5 1.125,-1.5 l 6.23934,-3.60368 3.57132,2.21612 9.81434,-2.86244 v -3.625 c 0,0 -0.125,-2 -0.875,-1.75 -0.75,0.25 -1.875,1.5 -2,2 -0.125,0.5 1.25,0.75 -0.25,1.125 -1.5,0.375 -2.375,0.375 -2.375,0.375 l -1.625,-1.375 -0.375,1.5 h -1.125 l -12.704867,1.86618 -7.51301,4.41942 -10.782123,3.3394 -3.375,3.625 1.625,3.125 c 0,0 -0.25,-2.25 0.375,-2.125 0.625,0.125 2.625,0.5 2.625,0.5 l 2.25,-1"
     style="fill:#000000;fill-opacity:1;stroke:#000000;stroke-width:1px;stroke-linecap:butt;stroke-linejoin:miter;stroke-opacity:1" /><ellipse
     ry="15"
     rx="14.0625"
     cy="30.214184"
     cx="24.867451"
     id="path15343-5"
     style="opacity:1;fill:none;fill-opacity:1;stroke:#000000;stroke-width:2;stroke-linecap:round;stroke-linejoin:round;stroke-miterlimit:4;stroke-dasharray:none;stroke-opacity:1;paint-order:stroke fill markers" /><ellipse
     ry="10.2223"
     rx="9.5834055"
     cy="30.117977"
     cx="25.007343"
     id="path15343-2-9"
     style="opacity:1;fill:none;fill-opacity:1;stroke:#000000;stroke-width:1.36297333;stroke-linecap:round;stroke-linejoin:round;stroke-miterlimit:4;stroke-dasharray:none;stroke-opacity:1;paint-order:stroke fill markers" /><ellipse
     ry="4.2471957"
     rx="3.9817457"
     cy="30.46574"
     cx="25.304951"
     id="path15343-2-0-4"
     style="opacity:1;fill:none;fill-opacity:1;stroke:#000000;stroke-width:2;stroke-linecap:round;stroke-linejoin:round;stroke-miterlimit:4;stroke-dasharray:none;stroke-opacity:1;paint-order:stroke fill markers" /><path
     id="path15375-3"
     d="m 26.92995,26.401681 6.35616,-13.78737 2.69077,-0.08369 4.008383,-2.09931 -0.90106,4.24626 0.530329,3.469667 -11.247115,9.230903 -3.373215,2.988328 z"
     style="fill:#000000;fill-opacity:1;stroke:#000000;stroke-width:1px;stroke-linecap:butt;stroke-linejoin:miter;stroke-opacity:1" /><path
     id="path15377-4"
     d="m 37.17995,38.089181 1.777728,5.33839 -5.527728,-0.33839 z"
     style="fill:#000000;fill-opacity:1;stroke:#000000;stroke-width:1px;stroke-linecap:butt;stroke-linejoin:miter;stroke-opacity:1" /><path
     id="path15379-2"
     d="m 16.67995,43.339181 -1.25,5.75 5.25,-4.75 z"
     style="fill:#000000;fill-opacity:1;stroke:#000000;stroke-width:1px;stroke-linecap:butt;stroke-linejoin:miter;stroke-opacity:1" /><path
     id="path15381-9"
     d="m 12.42995,21.339181 -1.63128,-4.58839 c 0,0 7.88128,1.33839 6.63128,1.58839 -1.25,0.25 -5,3 -5,3 z"
     style="fill:#000000;fill-opacity:1;stroke:#000000;stroke-width:1px;stroke-linecap:butt;stroke-linejoin:miter;stroke-opacity:1" /><path
     id="path15443"
     d="m 21,29.375 -2.25,-4.75 2.439703,1.084313 1.522801,0.570219 -1.096806,4.868398 1.223212,2.445514 3.245456,1.419647 2.590471,-2.233452 0.647845,-3.037419 -1.231891,-3.059598 -3.964957,0.06077 L 22.170945,26.033988 23.25,26.625 24.433058,23.544194 25.92995,25.589181 30.5,22 l -1.632583,5.940641 2.926777,0.766466 -1.875,2.551776 1.888864,4.660311 L 27.875,34.375 26.75,37 24.5,34.75 l -3.625,3 0.875,-4.625 -2.75,-1.5 z"
     style="fill:#000000;fill-opacity:1;stroke:#000000;stroke-width:1px;stroke-linecap:butt;stroke-linejoin:miter;stroke-opacity:1" /><path
     id="path15449"
     d="m 19.770739,41.232156 -0.176777,2.474874 1.085988,0.632151 0.858556,-2.665083 -0.858556,2.665083 2.272769,0.516898 0.08839,-2.474874 0.08839,2.828427 h 2.65165 l -0.618718,-3.005204 0.707107,2.651651 2.209708,-0.53033 -0.707106,-2.386486 0.883883,2.386486 2.298097,-0.795496 -1.59099,-2.563262 1.767767,2.740039 1.767767,-1.149048 -1.590991,-2.386486 2.52228,2.917685 1.366808,-2.298966 -1.767767,-2.032932 1.59099,2.298097 1.502602,-2.298097 -1.856155,-1.944544 1.679378,1.856155 1.767767,-2.828427 -2.12132,-1.06066 2.386485,1.325825 0.618719,-3.270369 -2.121321,-0.441941 2.209709,0.265165 -0.265165,-1.767767 -1.856155,-0.795495 h 2.298097 l -0.53033,-2.563263 -1.679379,0.707107 1.767767,-0.707107 -0.795495,-1.767767 -1.325825,0.530331 1.237437,-0.795496 -0.265166,-1.944543 -1.856155,0.795495 1.856155,-0.618719 -0.972271,-1.944543 -1.590991,1.149048 1.679379,-1.149048 -1.414214,-2.121321 -4.949747,-3.623922 -0.883884,2.651651 1.060661,-2.651651 -2.298097,-0.707107 0.08839,3.005204 0.08839,-2.740039 -2.563262,-0.441941 0.53033,3.005204 -0.618718,-2.916816 -2.032932,0.265165 0.53033,2.474874 -0.618718,-2.474874 -2.740039,0.441942 0.795495,2.386485 -0.883884,-2.12132 -1.856155,0.707107 1.237437,2.298097 -1.325825,-2.298097 -1.414214,0.972272 1.944544,2.386485 -1.944544,-2.474874 -1.59099,1.679379 1.502602,1.59099 -1.59099,-1.502602 -1.149049,1.325825 1.502602,1.590991 -1.856155,-1.767767 -1.149049,2.474873 2.032932,1.414214 -2.032932,-1.06066 -0.972272,2.209708 2.032932,0.883884 -2.386485,-0.795495 -0.265165,2.298097 c 0,0 3.005204,0.53033 2.65165,0.53033 -0.353553,0 -2.740038,-0.441942 -2.740038,-0.441942 l -0.176777,2.651651 2.386485,-0.618719 -2.298097,1.06066 0.265165,1.856156 2.474874,-0.441942 -2.65165,0.883883 0.53033,2.121321 2.65165,-1.149049 -2.386485,1.414214 1.06066,1.856155 2.209709,-1.59099 -2.032932,1.944544 1.325825,1.59099 1.767767,-1.502602 -1.414214,1.944544 0.883884,0.972271 1.944543,-1.856155 -1.502602,2.298097 1.414214,1.325825 1.502602,-2.298097 -1.06066,2.121321 1.149048,0.707106 z"
     style="fill:none;stroke:#000000;stroke-width:0.5;stroke-linecap:butt;stroke-linejoin:bevel;stroke-miterlimit:4;stroke-dasharray:none;stroke-opacity:1" /></svg>