<?xml version="1.0" encoding="UTF-8" standalone="no"?>
<svg
   xmlns:dc="http://purl.org/dc/elements/1.1/"
   xmlns:cc="http://creativecommons.org/ns#"
   xmlns:rdf="http://www.w3.org/1999/02/22-rdf-syntax-ns#"
   xmlns:svg="http://www.w3.org/2000/svg"
   xmlns="http://www.w3.org/2000/svg"
   version="1.1"
   viewBox="0 0 100 100"
   data-name="Layer 1"
   id="Layer_1">
  <metadata
     id="metadata1950">
    <rdf:RDF>
      <cc:Work
         rdf:about="">
        <dc:format>image/svg+xml</dc:format>
        <dc:type
           rdf:resource="http://purl.org/dc/dcmitype/StillImage" />
        <dc:title>flogo-HexRBG-Wht-100</dc:title>
      </cc:Work>
    </rdf:RDF>
  </metadata>
  <defs
     id="defs1941">
    <style
       id="style1939">.cls-1{fill:#fff;}</style>
  </defs>
  <title
     id="title1943">flogo-HexRBG-Wht-100</title>
  <path
     style="fill:#000000;fill-opacity:1"
     id="path1945"
     d="M94.48,0h-89A5.52,5.52,0,0,0,0,5.52v89A5.52,5.52,0,0,0,5.52,100h47.9V61.33h-13V46.19h13V35.06c0-12.91,7.89-20,19.41-20a104.57,104.57,0,0,1,11.64.6V29.2h-8c-6.25,0-7.46,3-7.46,7.35v9.64H84l-2,15.14H69V100H94.48A5.52,5.52,0,0,0,100,94.48v-89A5.52,5.52,0,0,0,94.48,0Z"
     class="cls-1" />
</svg>
