<?xml version="1.0" encoding="UTF-8" standalone="no"?>
<svg
   xmlns:dc="http://purl.org/dc/elements/1.1/"
   xmlns:cc="http://creativecommons.org/ns#"
   xmlns:rdf="http://www.w3.org/1999/02/22-rdf-syntax-ns#"
   xmlns:svg="http://www.w3.org/2000/svg"
   xmlns="http://www.w3.org/2000/svg"
   xmlns:sodipodi="http://sodipodi.sourceforge.net/DTD/sodipodi-0.dtd"
   xmlns:inkscape="http://www.inkscape.org/namespaces/inkscape"
   version="1.1"
   x="0px"
   y="0px"
   viewBox="0 0 100 100"
   xml:space="preserve"
   id="svg6754"
   sodipodi:docname="share_email.svg"
   width="100"
   height="100"
   inkscape:version="0.92.3 (2405546, 2018-03-11)"><metadata
     id="metadata6760"><rdf:RDF><cc:Work
         rdf:about=""><dc:format>image/svg+xml</dc:format><dc:type
           rdf:resource="http://purl.org/dc/dcmitype/StillImage" /><dc:title /></cc:Work></rdf:RDF></metadata><defs
     id="defs6758" /><sodipodi:namedview
     pagecolor="#ffffff"
     bordercolor="#666666"
     borderopacity="1"
     objecttolerance="10"
     gridtolerance="10"
     guidetolerance="10"
     inkscape:pageopacity="0"
     inkscape:pageshadow="2"
     inkscape:window-width="1920"
     inkscape:window-height="986"
     id="namedview6756"
     showgrid="false"
     inkscape:zoom="5.3400704"
     inkscape:cx="107.9272"
     inkscape:cy="33.160615"
     inkscape:window-x="-11"
     inkscape:window-y="-11"
     inkscape:window-maximized="1"
     inkscape:current-layer="g1970"
     inkscape:pagecheckerboard="true"
     inkscape:snap-global="false" /><g
     id="g1970"
     style="stroke-width:5;stroke-miterlimit:4;stroke-dasharray:none;stroke:#ffffff;stroke-opacity:1"
     transform="translate(-3.1779661,0.26483051)"><path
       style="fill:none;stroke:#000000;stroke-width:10;stroke-linecap:butt;stroke-linejoin:miter;stroke-miterlimit:4;stroke-dasharray:none;stroke-opacity:1"
       d="m -160.82634,64.412062 61.137386,50.172698 61.724121,-50.654202"
       id="path2000"
       inkscape:connector-curvature="0" /><path
       style="fill:none;stroke:#000000;stroke-width:8;stroke-linecap:butt;stroke-linejoin:miter;stroke-miterlimit:4;stroke-dasharray:none;stroke-opacity:1"
       d="m -137.96447,117.38802 47.004263,-74.488092 47.455356,75.202952"
       id="path2000-1"
       inkscape:connector-curvature="0" /><path
       sodipodi:nodetypes="cccccccccccccccc"
       style="fill:#ffffff;fill-opacity:1;stroke:none;stroke-width:1.28778994px;stroke-linecap:butt;stroke-linejoin:miter;stroke-opacity:1"
       d="m -110.67821,-22.922391 0.20595,70.877728 13.217302,0.09512 13.069038,-41.504121 -23.609,-18.738234 -0.4119,-7.906679 h 10.130097 l 33.737071,26.847039 34.561276,-26.09204 10.729253,-0.09512 -0.0187,8.284179 -24.620468,18.735262 19.49124,40.749119 8.461378,-0.374526 V -22.64001 Z"
       id="path1982"
       inkscape:connector-curvature="0" /><path
       sodipodi:nodetypes="cccccc"
       style="fill:#ffffff;fill-opacity:1;stroke:none;stroke-width:1.28778994px;stroke-linecap:butt;stroke-linejoin:miter;stroke-opacity:1"
       d="M -83.754116,60.314727 -73.21293,24.443372 c 5.112781,4.107138 8.892806,6.556208 14.023228,10.64132 l 13.947672,-10.64132 16.851273,36.338026 z"
       id="path1990"
       inkscape:connector-curvature="0" /><path
       style="fill:none;stroke:#000000;stroke-width:1px;stroke-linecap:butt;stroke-linejoin:miter;stroke-opacity:1"
       d="m -80.903322,89.99747 52.995556,43.81965"
       id="path2023"
       inkscape:connector-curvature="0" /><path
       style="fill:#ffffff;fill-opacity:1;stroke:none;stroke-width:1px;stroke-linecap:butt;stroke-linejoin:miter;stroke-miterlimit:4;stroke-dasharray:none;stroke-opacity:1"
       d="m -77.064421,4.7926017 39.325324,32.5838393 -32.771104,51.684712 -19.475401,-3.37074 z"
       id="path2029-5"
       inkscape:connector-curvature="0" /><g
       id="g2067"
       transform="matrix(0.78856882,0,0,0.78856882,8.0594565,9.9324221)"><path
         inkscape:connector-curvature="0"
         id="path2025"
         d="M 19.844413,15.466617 57.109839,46.55235 95.68611,15.09209 Z"
         style="fill:#ffffff;fill-opacity:1;stroke:none;stroke-width:1px;stroke-linecap:butt;stroke-linejoin:miter;stroke-opacity:1" /><path
         sodipodi:nodetypes="ccccsscccc"
         inkscape:connector-curvature="0"
         id="path2029"
         d="M 112.24603,15.747874 110.87611,15.64128 76.959765,43.743396 105.72381,89.108404 c 6.73443,-0.02882 8.84811,-0.01592 10.18221,-0.0481 1.0752,-0.02594 2.30094,-0.0016 2.95586,-0.806995 0.84611,-1.040546 0.73589,-2.004212 0.73589,-2.004212 l -0.54941,-64.21623 c 0,0 0.4666,-4.205456 -0.86979,-5.496542 -1.31396,-0.963001 -4.20423,-0.966446 -5.93254,-0.788451 z"
         style="fill:#ffffff;fill-opacity:1;stroke:none;stroke-width:1px;stroke-linecap:butt;stroke-linejoin:miter;stroke-opacity:1" /><path
         inkscape:connector-curvature="0"
         id="path2046"
         d="M 19.469886,88.873889 43.814134,49.548565 56.922576,60.035318 70.592807,48.799511 95.873373,89.061152 Z"
         style="fill:#ffffff;fill-opacity:1;stroke:none;stroke-width:1px;stroke-linecap:butt;stroke-linejoin:miter;stroke-opacity:1" /><path
         sodipodi:nodetypes="ccccsscccc"
         inkscape:connector-curvature="0"
         id="path2029-56"
         d="M 2.696026,15.917812 4.065946,15.811218 37.982295,43.913334 9.218246,89.278342 c -6.73443,-0.02882 -8.84810995,-0.01592 -10.18220995,-0.0481 -1.07520005,-0.02594 -2.30094005,-0.0016 -2.95586005,-0.806995 -0.84611,-1.040546 -0.73589,-2.004212 -0.73589,-2.004212 l 0.54941,-64.21623 c 0,0 -0.4666,-4.205456 0.86979,-5.496542 1.31396,-0.963001 4.20423005,-0.966446 5.93254,-0.788451 z"
         style="fill:#ffffff;fill-opacity:1;stroke:none;stroke-width:1px;stroke-linecap:butt;stroke-linejoin:miter;stroke-miterlimit:4;stroke-dasharray:none;stroke-opacity:1" /></g></g></svg>