<?xml version="1.0" encoding="UTF-8" standalone="no"?>
<svg
   xmlns:dc="http://purl.org/dc/elements/1.1/"
   xmlns:cc="http://creativecommons.org/ns#"
   xmlns:rdf="http://www.w3.org/1999/02/22-rdf-syntax-ns#"
   xmlns:svg="http://www.w3.org/2000/svg"
   xmlns="http://www.w3.org/2000/svg"
   height="64"
   width="64"
   id="svg2"
   xml:space="preserve"
   enable-background="new -143.5 -19.058 1024 1024"
   viewBox="-143.5 -19.058 64 64"
   y="0px"
   x="0px"
   version="1.1"><metadata
     id="metadata68"><rdf:RDF><cc:Work
         rdf:about=""><dc:format>image/svg+xml</dc:format><dc:type
           rdf:resource="http://purl.org/dc/dcmitype/StillImage" /><dc:title></dc:title></cc:Work></rdf:RDF></metadata><defs
     id="defs66" /><g
     transform="translate(-13.16052,-39.414159)"
     id="g6149"><path
       style="fill:none;stroke:#000000;stroke-width:0.25;stroke-linecap:butt;stroke-linejoin:miter;stroke-miterlimit:4;stroke-dasharray:none;stroke-opacity:1"
       d="m -171.80873,56.52344 74.850912,-74.801478 2.64297,2.701872 -74.793712,74.797607 2.67242,2.672418 74.789812,-74.793698 2.67632,2.668513 -74.797612,74.805425 2.67632,2.66851 74.793722,-74.8015149 2.67241,2.668514 -74.781992,74.7937009 2.66071,2.68414 74.789802,-74.8015149 2.69585,2.63635497 -74.815342,74.82314993 2.66461,2.676334 74.793702,-74.7976119 2.66852,2.676327 -74.789802,74.7937049 2.66851,2.68023 74.797612,-74.8054199 2.67242,2.6724199 -74.793702,74.80152 2.68414,2.6607 74.781982,-74.793706 2.66852,2.676326 -74.789802,74.80152 2.61313,2.66465 74.850432,-74.798003 2.62781,2.710106 -74.778072,74.785897 2.67241,2.67242 74.774182,-74.78199 2.67632,2.668514 -74.781982,74.793703 2.67633,2.66851 74.778082,-74.789793 2.67241,2.668514 -74.766362,74.781989 2.66071,2.68414 74.774172,-74.789803 2.69585,2.636355 -74.799712,74.811438 2.66461,2.67633 74.778072,-74.785896 2.66852,2.676327 -74.774182,74.781989 2.66852,2.68023 74.781982,-74.793704 2.67242,2.67242 -74.778072,74.789804 2.68413,2.6607 74.766362,-74.78199 2.66851,2.676326 -74.77416,74.789804 2.66641,2.66858 74.78152,-74.790217"
       id="path6153" /><path
       style="fill:none;stroke:#000000;stroke-width:0.25;stroke-linecap:butt;stroke-linejoin:miter;stroke-miterlimit:4;stroke-dasharray:none;stroke-opacity:1"
       d="m -170.12754,46.84974 74.850911,-74.801478 2.642974,2.701872 -74.793715,74.797607 2.67242,2.672416 74.789815,-74.793696 2.67632,2.668513 -74.797615,74.805423 2.67632,2.66851 74.793725,-74.801513 2.67241,2.668514 -74.781995,74.793699 2.66071,2.68414 74.789805,-74.801513 2.69585,2.6363549 -74.815345,74.8231481 2.66461,2.67634 74.793705,-74.7976161 2.66852,2.676327 -74.789805,74.7937091 2.66851,2.68023 74.797614,-74.8054241 2.67242,2.67242 -74.793704,74.8015241 2.68414,2.6607 74.781984,-74.7937105 2.66852,2.676326 -74.789804,74.8015245 2.61313,2.66465 74.850434,-74.7980075 2.62781,2.7101055 -74.778074,74.785902 2.67241,2.67242 74.774184,-74.781995 2.67632,2.668514 -74.781984,74.793701 2.67633,2.66851 74.778084,-74.789791 2.67241,2.668515 -74.766364,74.781986 2.66071,2.684143 74.774174,-74.789803 2.69585,2.636355 -74.799714,74.811438 2.66461,2.67633 74.778074,-74.785896 2.66852,2.676327 -74.774184,74.781989 2.66852,2.68023 74.781984,-74.793704 2.67242,2.67242 -74.778074,74.789794 2.68413,2.6607 74.766364,-74.78198 2.66851,2.676326 -74.774163,74.789794 2.66641,2.66858 74.781523,-74.790207"
       id="path6153-0" /></g></svg>