<?xml version="1.0" encoding="UTF-8" standalone="no"?>
<svg
   xmlns:dc="http://purl.org/dc/elements/1.1/"
   xmlns:cc="http://creativecommons.org/ns#"
   xmlns:rdf="http://www.w3.org/1999/02/22-rdf-syntax-ns#"
   xmlns:svg="http://www.w3.org/2000/svg"
   xmlns="http://www.w3.org/2000/svg"
   xmlns:sodipodi="http://sodipodi.sourceforge.net/DTD/sodipodi-0.dtd"
   xmlns:inkscape="http://www.inkscape.org/namespaces/inkscape"
   height="100"
   width="100"
   id="svg2"
   xml:space="preserve"
   enable-background="new -143.5 -19.058 1024 1024"
   viewBox="-143.5 -19.058 100 100"
   y="0px"
   x="0px"
   version="1.1"
   sodipodi:docname="marker_TRI.svg"
   inkscape:version="0.92.3 (2405546, 2018-03-11)"><sodipodi:namedview
     pagecolor="#ffffff"
     bordercolor="#666666"
     borderopacity="1"
     objecttolerance="10"
     gridtolerance="10"
     guidetolerance="10"
     inkscape:pageopacity="0"
     inkscape:pageshadow="2"
     inkscape:window-width="1920"
     inkscape:window-height="986"
     id="namedview939"
     showgrid="false"
     inkscape:pagecheckerboard="true"
     inkscape:zoom="4.72"
     inkscape:cx="16.739697"
     inkscape:cy="41.278502"
     inkscape:window-x="-11"
     inkscape:window-y="-11"
     inkscape:window-maximized="1"
     inkscape:current-layer="g4962"
     inkscape:snap-global="false" /><metadata
     id="metadata68"><rdf:RDF><cc:Work
         rdf:about=""><dc:format>image/svg+xml</dc:format><dc:type
           rdf:resource="http://purl.org/dc/dcmitype/StillImage" /><dc:title></dc:title></cc:Work></rdf:RDF></metadata><defs
     id="defs66" /><g
     transform="matrix(0.2437719,0,0,0.2437719,-113.00573,-27.420218)"
     id="g4962"><path
       inkscape:connector-curvature="0"
       style="fill:#000000;fill-opacity:1;stroke:#ffffff;stroke-width:24.61317322;stroke-linecap:butt;stroke-linejoin:miter;stroke-miterlimit:4;stroke-dasharray:none;stroke-opacity:1"
       d="m -71.047782,95.982065 c 23.18162,-23.863409 52.177488,-39.300379 155.243512,-40.041209 94.85662,-0.68181 145.36281,46.094194 145.36281,46.094194 l -2.31386,20.046 -34.48349,15.10602 c 1.94883,86.5068 -2.24138,8.91273 -1.13309,78.22302 l 37.81254,1.16327 0.31558,57.71875 -35.09363,0.99795 c 2.07363,48.91301 0.28387,24.91419 2.25393,77.91808 l 34.71298,9.56207 1.4237,28.70784 c 0,0 -21.35166,31.07187 -151.58472,31.27764 -128.259482,0.20255 -151.883392,-31.97891 -151.883392,-31.97891 l -1.3351,-30.36466 38.450659,-10.05255 0.215587,-21.80647 c -0.814959,-35.10004 1.312198,-28.87803 0.637474,-60.37774 l -37.9257,-1.19089 -0.88218,-57.42832 38.98812,0.086 c 1.952536,-67.59665 0.611821,-25.68527 1.162926,-81.42936 l -39.516566,-9.40833 z"
       id="path3719-6"
       sodipodi:nodetypes="csccccccccccsccccccccccc" /><path
       inkscape:connector-curvature="0"
       style="fill:#444444;fill-opacity:1;stroke:none;stroke-width:18.60523224;stroke-linecap:butt;stroke-linejoin:miter;stroke-miterlimit:4;stroke-dasharray:none;stroke-opacity:1"
       d="M -71.047767,95.982067 C -47.866151,72.118658 -18.870282,56.681688 84.19574,55.940858 c 94.85662,-0.68181 145.36281,46.094192 145.36281,46.094192 l -2.31386,20.046 -34.48349,15.10602 c 1.94883,86.5068 -2.24138,8.91273 -1.13309,78.22302 l 37.81254,1.16327 0.31557,57.71875 -35.09363,0.99795 c 2.07363,48.91301 0.28388,24.91419 2.25393,77.91808 l 34.71297,9.56207 1.42371,28.70784 c 0,0 -21.35166,31.07187 -151.58472,31.27764 -128.259468,0.20255 -151.883379,-31.97891 -151.883379,-31.97891 L -71.75,360.41212 l 38.450657,-10.05255 0.215587,-21.80647 c -0.814959,-35.10004 1.312198,-28.87803 0.637474,-60.37774 l -37.925703,-1.19089 -0.882178,-57.42832 38.988121,0.086 c 1.952535,-67.59665 0.611821,-25.68527 1.162926,-81.42936 l -39.516569,-9.40833 z"
       id="path3719"
       sodipodi:nodetypes="csccccccccccsccccccccccc" /><g
       id="layer1"
       transform="matrix(6.2017443,0,0,6.2017443,145.68234,-1374.7554)"><g
         transform="matrix(0.3919989,0,0,0.3919989,6.2937,160.59874)"
         id="g4900"><g
           transform="matrix(0.62023298,0,0,0.62023298,-17.101068,98.369245)"
           id="g11942"><path
             id="path5660"
             d="m -47.563893,258.12527 -36.415316,-16.46435 c 0,0 0.983409,-15.16948 6.961753,-21.3522 5.912237,-6.11435 21.153012,-7.97492 21.153012,-7.97492 l 13.655745,36.53028 18.475411,-36.27303 c 0,0 13.8673037,1.26488 19.2787076,6.4314 6.2433003,5.96079 6.4262233,21.09494 6.4262233,21.09494 l -38.5573899,16.7216 14.459022,35.24401 c 0,0 -13.006537,9.71343 -21.688535,9.26118 -9.020305,-0.46986 -21.956291,-12.09099 -21.956291,-12.09099 z"
             style="fill:#ffffff;stroke:#444444;stroke-width:0.73487401px;stroke-linecap:butt;stroke-linejoin:miter;stroke-opacity:1"
             inkscape:connector-curvature="0" /><ellipse
             ry="15.539133"
             rx="15.638105"
             cy="254.00917"
             cx="-40.602146"
             id="path5662"
             style="fill:#ffffff;stroke:#444444;stroke-width:8.50280094;stroke-linecap:round;stroke-miterlimit:4;stroke-dasharray:none;stroke-opacity:1" /></g></g></g></g></svg>