<?xml version="1.0" encoding="UTF-8" standalone="no"?>
<svg
   xmlns:dc="http://purl.org/dc/elements/1.1/"
   xmlns:cc="http://creativecommons.org/ns#"
   xmlns:rdf="http://www.w3.org/1999/02/22-rdf-syntax-ns#"
   xmlns:svg="http://www.w3.org/2000/svg"
   xmlns="http://www.w3.org/2000/svg"
   xmlns:sodipodi="http://sodipodi.sourceforge.net/DTD/sodipodi-0.dtd"
   xmlns:inkscape="http://www.inkscape.org/namespaces/inkscape"
   height="100"
   width="100"
   id="svg2"
   xml:space="preserve"
   enable-background="new -143.5 -19.058 1024 1024"
   viewBox="-143.5 -19.058 100 100"
   y="0px"
   x="0px"
   version="1.1"
   sodipodi:docname="marker_MOSF.svg"
   inkscape:version="0.92.3 (2405546, 2018-03-11)"><sodipodi:namedview
     pagecolor="#ffffff"
     bordercolor="#666666"
     borderopacity="1"
     objecttolerance="10"
     gridtolerance="10"
     guidetolerance="10"
     inkscape:pageopacity="0"
     inkscape:pageshadow="2"
     inkscape:window-width="1920"
     inkscape:window-height="986"
     id="namedview1502"
     showgrid="false"
     inkscape:pagecheckerboard="true"
     inkscape:zoom="4.72"
     inkscape:cx="70.114674"
     inkscape:cy="50.005936"
     inkscape:window-x="-11"
     inkscape:window-y="-11"
     inkscape:window-maximized="1"
     inkscape:current-layer="svg2" /><metadata
     id="metadata68"><rdf:RDF><cc:Work
         rdf:about=""><dc:format>image/svg+xml</dc:format><dc:type
           rdf:resource="http://purl.org/dc/dcmitype/StillImage" /><dc:title></dc:title></cc:Work></rdf:RDF></metadata><defs
     id="defs66" /><path
     style="fill:#000000;fill-opacity:1;stroke:#ffffff;stroke-width:6;stroke-linecap:butt;stroke-linejoin:miter;stroke-opacity:1;stroke-miterlimit:4;stroke-dasharray:none"
     d="m -115.50868,71.902176 46.802634,0.51716 7.07232,-8.71075 -0.44308,-38.10398 -11.5198,-15.50743 v -19.05199 l -15.507424,-0.22153 v 17.50124 l -6.42224,-1.12066 -26.58643,-4.63924 -8.1667,12.07624 11.98658,10.66721 4.56142,-3.56538 -9.26327,-7.40023 4.18392,-5.4385 22.85236,4.07513 -27.15427,10.22744 -0.0166,2.32453 -0.10734,15.05771 c 0.24966,9.37721 0.24256,13.96294 0.22901,23.34258 2.31273,2.69768 4.89632,4.94504 7.49891,7.97045 z"
     id="path2047-48-2"
     inkscape:connector-curvature="0"
     sodipodi:nodetypes="ccccccccccccccccccccc" /><path
     style="fill:#444444;fill-opacity:1;stroke:#444444;stroke-width:1.04564381px;stroke-linecap:butt;stroke-linejoin:miter;stroke-opacity:1"
     d="m -115.50868,71.902176 46.802631,0.51716 7.07232,-8.71075 -0.44308,-38.10398 -11.5198,-15.50743 V -8.9548139 l -15.50742,-0.22153 v 17.50124 l -6.42224,-1.12066 -26.586431,-4.6392401 -8.1667,12.07624 11.98658,10.66721 4.56142,-3.56538 -9.26327,-7.40023 4.18392,-5.4384999 22.852361,4.0751299 -27.154271,10.22744 -0.0166,2.32453 -0.10734,15.05771 c 0.24966,9.37721 0.24256,13.96294 0.22901,23.34258 2.31273,2.69768 4.89632,4.94504 7.49891,7.97045 z"
     id="path2047-48"
     inkscape:connector-curvature="0"
     sodipodi:nodetypes="ccccccccccccccccccccc" /></svg>