<?xml version="1.0" encoding="UTF-8" standalone="no"?>
<svg
   xmlns:dc="http://purl.org/dc/elements/1.1/"
   xmlns:cc="http://creativecommons.org/ns#"
   xmlns:rdf="http://www.w3.org/1999/02/22-rdf-syntax-ns#"
   xmlns:svg="http://www.w3.org/2000/svg"
   xmlns="http://www.w3.org/2000/svg"
   xmlns:sodipodi="http://sodipodi.sourceforge.net/DTD/sodipodi-0.dtd"
   xmlns:inkscape="http://www.inkscape.org/namespaces/inkscape"
   height="100"
   width="100"
   id="svg2"
   xml:space="preserve"
   enable-background="new -143.5 -19.058 1024 1024"
   viewBox="-143.5 -19.058 100 100"
   y="0px"
   x="0px"
   version="1.1"
   sodipodi:docname="mh_chem3.svg"
   inkscape:version="0.92.3 (2405546, 2018-03-11)"><sodipodi:namedview
     pagecolor="#ffffff"
     bordercolor="#666666"
     borderopacity="1"
     objecttolerance="10"
     gridtolerance="10"
     guidetolerance="10"
     inkscape:pageopacity="0"
     inkscape:pageshadow="2"
     inkscape:window-width="1920"
     inkscape:window-height="986"
     id="namedview10412"
     showgrid="false"
     inkscape:zoom="1.668772"
     inkscape:cx="-150.30896"
     inkscape:cy="-23.431016"
     inkscape:window-x="-11"
     inkscape:window-y="-11"
     inkscape:window-maximized="1"
     inkscape:current-layer="g4900" /><metadata
     id="metadata68"><rdf:RDF><cc:Work
         rdf:about=""><dc:format>image/svg+xml</dc:format><dc:type
           rdf:resource="http://purl.org/dc/dcmitype/StillImage" /><dc:title /></cc:Work></rdf:RDF></metadata><defs
     id="defs66" /><g
     transform="matrix(1.511811,0,0,1.511811,-145.35103,-367.22925)"
     id="layer1"><g
       id="g4900"
       transform="matrix(0.3919989,0,0,0.3919989,6.2937,160.59874)"><path
         id="path4671"
         d="m 46.015796,186.87326 c 0,0 -11.176525,-0.64636 -10.650997,10.63962 0.587782,12.62291 17.29309,12.06559 17.29309,12.06559 l -0.334481,30.13968 c 0,0 -51.094801,1.42427 -44.6836781,67.73782 3.2748141,33.87309 62.1163561,34.6547 62.1163561,34.6547 0,0 65.005674,10.08662 66.081224,-45.99624 0.89605,-46.72324 -35.35613,-56.77835 -44.305492,-56.83768 -1.327731,-13.22491 -0.697603,-14.62257 -0.887081,-29.74168 0,0 16.862673,1.37434 17.316383,-9.22337 1.09398,-11.5225 -7.89604,-13.00398 -7.89604,-13.00398 0,0 -21.546343,-0.12264 -31.626118,-0.26466 -9.833708,-0.13855 -22.423166,-0.1698 -22.423166,-0.1698 z"
         style="fill:#000000;stroke:#ffffff;stroke-width:7.65308285;stroke-linecap:butt;stroke-linejoin:miter;stroke-miterlimit:4;stroke-dasharray:none;stroke-opacity:1"
         inkscape:connector-curvature="0"
         sodipodi:nodetypes="csccscsccccsc" /><path
         id="path4673"
         d="m 27.329909,295.95009 c 10.018615,-1.12798 -16.939647,11.5906 28.477732,10.35739 10.345385,1.39822 15.282874,3.41459 32.181954,-0.0765 39.871375,1.76964 19.958835,-9.8778 29.565685,-9.13123 0,0 10.04564,29.63305 -46.065286,25.68293 C 7.7450608,318.29513 27.329909,295.95009 27.329909,295.95009 Z"
         style="fill:#ffffff;stroke:#000000;stroke-width:0.25136489px;stroke-linecap:butt;stroke-linejoin:miter;stroke-opacity:1"
         inkscape:connector-curvature="0"
         sodipodi:nodetypes="ccccsc" /></g></g></svg>