<?xml version="1.0" encoding="UTF-8" standalone="no"?>
<svg
   xmlns:dc="http://purl.org/dc/elements/1.1/"
   xmlns:cc="http://creativecommons.org/ns#"
   xmlns:rdf="http://www.w3.org/1999/02/22-rdf-syntax-ns#"
   xmlns:svg="http://www.w3.org/2000/svg"
   xmlns="http://www.w3.org/2000/svg"
   xmlns:sodipodi="http://sodipodi.sourceforge.net/DTD/sodipodi-0.dtd"
   xmlns:inkscape="http://www.inkscape.org/namespaces/inkscape"
   height="100"
   width="100"
   id="svg2"
   xml:space="preserve"
   enable-background="new -143.5 -19.058 1024 1024"
   viewBox="-143.5 -19.058 100 100"
   y="0px"
   x="0px"
   version="1.1"
   sodipodi:docname="mh_chem_simple2.svg"
   inkscape:version="0.92.3 (2405546, 2018-03-11)"><sodipodi:namedview
     pagecolor="#ffffff"
     bordercolor="#666666"
     borderopacity="1"
     objecttolerance="10"
     gridtolerance="10"
     guidetolerance="10"
     inkscape:pageopacity="0"
     inkscape:pageshadow="2"
     inkscape:window-width="1920"
     inkscape:window-height="986"
     id="namedview881"
     showgrid="false"
     inkscape:pagecheckerboard="true"
     inkscape:zoom="5.3952247"
     inkscape:cx="90.674322"
     inkscape:cy="45.245857"
     inkscape:window-x="-11"
     inkscape:window-y="-11"
     inkscape:window-maximized="1"
     inkscape:current-layer="svg2" /><metadata
     id="metadata68"><rdf:RDF><cc:Work
         rdf:about=""><dc:format>image/svg+xml</dc:format><dc:type
           rdf:resource="http://purl.org/dc/dcmitype/StillImage" /><dc:title></dc:title></cc:Work></rdf:RDF></metadata><defs
     id="defs66" /><path
     style="fill:#000000;fill-opacity:1;stroke:#ffffff;stroke-width:8;stroke-linecap:butt;stroke-linejoin:miter;stroke-opacity:1;stroke-miterlimit:4;stroke-dasharray:none"
     d="m -104.65431,-1.747163 v 14.930317 c 0,0 -21.90914,6.086302 -21.11126,32.503276 0.42187,13.967596 14.95632,27.971923 31.06161,27.260813 20.762977,-0.916765 31.94775,-15.495566 32.372211,-30.013106 C -61.659406,19.938488 -83.95691,12.527846 -83.95691,12.527846 l -0.33891,-14.109239 8.595787,-0.176477 c 0,0 2.448258,-0.2759132 2.228048,-4.9803402 -0.22021,-4.7044258 -2.359109,-4.0629088 -2.359109,-4.0629088 h -36.959376 c 0,0 -2.65227,0.18201 -2.35911,5.2424628 0.1924,3.321265 3.14548,3.8007872 3.14548,3.8007872 z"
     id="path13236-6"
     inkscape:connector-curvature="0"
     sodipodi:nodetypes="ccsssccczccscc" /><path
     style="fill:#000000;stroke:none;stroke-width:1px;stroke-linecap:butt;stroke-linejoin:miter;stroke-opacity:1;fill-opacity:1"
     d="M -104.65431,-1.7471625 V 13.183154 c 0,0 -21.90915,6.086302 -21.11127,32.503276 0.42187,13.967596 14.95632,27.971923 31.061612,27.260813 20.76298,-0.916765 31.947753,-15.495566 32.372214,-30.013106 0.672343,-22.995649 -21.625164,-30.406291 -21.625164,-30.406291 l -0.338912,-14.1092385 8.595792,-0.176477 c 0,0 2.448258,-0.275913 2.228048,-4.9803399 -0.22021,-4.7044266 -2.359109,-4.0629096 -2.359109,-4.0629096 h -36.959381 c 0,0 -2.65227,0.18201 -2.35911,5.2424636 0.1924,3.3212649 3.14548,3.8007869 3.14548,3.8007869 z"
     id="path13236"
     inkscape:connector-curvature="0"
     sodipodi:nodetypes="ccsssccczccscc" /></svg>