<?xml version="1.0" encoding="UTF-8" standalone="no"?>
<svg
   xmlns:dc="http://purl.org/dc/elements/1.1/"
   xmlns:cc="http://creativecommons.org/ns#"
   xmlns:rdf="http://www.w3.org/1999/02/22-rdf-syntax-ns#"
   xmlns:svg="http://www.w3.org/2000/svg"
   xmlns="http://www.w3.org/2000/svg"
   id="svg4844"
   version="1.1"
   viewBox="0 0 66.145832 66.145835"
   height="250"
   width="250">
  <defs
     id="defs4838" />
  <metadata
     id="metadata4841">
    <rdf:RDF>
      <cc:Work
         rdf:about="">
        <dc:format>image/svg+xml</dc:format>
        <dc:type
           rdf:resource="http://purl.org/dc/dcmitype/StillImage" />
        <dc:title></dc:title>
      </cc:Work>
    </rdf:RDF>
  </metadata>
  <g
     transform="translate(0,-230.85415)"
     id="layer1">
    <g
       transform="matrix(0.45193166,0,0,0.45193166,1.1616151,142.07067)"
       id="g4890">
      <g
         transform="matrix(0.86738535,0,0,0.86738535,11.355887,40.997504)"
         id="g4900">
        <g
           transform="matrix(0.41134033,0,0,0.41134033,41.489367,161.328)"
           id="g4962">
          <g
             transform="matrix(0.4546733,0,0,0.4546733,92.337728,134.06241)"
             id="g4988">
            <path
               style="fill:#000000;stroke:#ffffff;stroke-width:19.3633213;stroke-linecap:butt;stroke-linejoin:miter;stroke-miterlimit:4;stroke-dasharray:none;stroke-opacity:1"
               d="m -184.29022,-150.15751 c 0,0 -35.5174,16.08277 -39.37817,50.13042 -3.86734,34.105365 60.42043,49.385065 60.42043,49.385065 L -177.597,133.74861 c 0,0 -198.85701,-39.691865 -206.47833,352.72359 -3.53326,181.925 332.127792,185.29398 332.127792,185.29398 0,0 346.260738,53.9037 353.327398,-245.93569 C 307.52255,165.19455 154.23609,131.70575 106.3851,131.38854 99.285902,60.676705 103.61086,33.228905 102.59775,-47.610945 c 0,0 48.56153,-12.29831 48.38025,-41.50613 -0.25303,-40.774825 -19.24122,-56.014175 -19.24122,-56.014175 0,0 -105.743968,-24.98514 -159.639168,-25.74451 -52.57951,-0.74082 -156.387832,20.71825 -156.387832,20.71825 z"
               id="path4671" />
            <path
               style="fill:#ffffff;stroke:#000000;stroke-width:1.34401417px;stroke-linecap:butt;stroke-linejoin:miter;stroke-opacity:1"
               d="m -261.89914,323.57901 c 92.76564,0.72707 45.94127,66.70417 185.381688,6.04486 74.2382942,-41.18277 59.751375,48.66922 200.456962,-1.0848 21.1886,-7.49237 83.74372,30.92309 83.74372,30.92309 0,0 49.65779,230.08063 -250.359796,208.95991 C -383.51214,544.42774 -261.89914,323.57901 -261.89914,323.57901 Z"
               id="path4673" />
          </g>
        </g>
      </g>
    </g>
  </g>
</svg>
