<?xml version="1.0" encoding="UTF-8" standalone="no"?>
<svg
   xmlns:dc="http://purl.org/dc/elements/1.1/"
   xmlns:cc="http://creativecommons.org/ns#"
   xmlns:rdf="http://www.w3.org/1999/02/22-rdf-syntax-ns#"
   xmlns:svg="http://www.w3.org/2000/svg"
   xmlns="http://www.w3.org/2000/svg"
   height="100"
   width="100"
   id="svg2"
   xml:space="preserve"
   enable-background="new -143.5 -19.058 1024 1024"
   viewBox="-143.5 -19.058 100 100"
   y="0px"
   x="0px"
   version="1.1"><metadata
     id="metadata68"><rdf:RDF><cc:Work
         rdf:about=""><dc:format>image/svg+xml</dc:format><dc:type
           rdf:resource="http://purl.org/dc/dcmitype/StillImage" /><dc:title></dc:title></cc:Work></rdf:RDF></metadata><defs
     id="defs66" /><g
     transform="matrix(1.511811,0,0,1.511811,-143.44311,-19.724109)"
     id="g823"><path
       style="fill:#000000;stroke:#ffffff;stroke-width:3;stroke-linecap:butt;stroke-linejoin:miter;stroke-miterlimit:4;stroke-dasharray:none;stroke-opacity:1"
       d="m 13.745787,33.875323 3.07306,4.762202 0.03845,25.760043 36.004397,0.296332 -0.592667,-42.671879 -3.55599,-3.852322 0.104769,-14.867468 c 0,0 -3.139358,-1.2435146 -4.786455,-1.2281129 -1.73387,0.016229 -5.013576,1.3868098 -5.013576,1.3868098 l -0.401101,6.4982559 c 0,0 -15.684562,-5.7171119 -19.536884,2.5801992 -3.852326,8.297308 -5.333988,21.33594 -5.333988,21.33594 z"
       id="path4644" /><path
       style="fill:#ffffff;stroke:#000000;stroke-width:1.17599666;stroke-linecap:butt;stroke-linejoin:miter;stroke-miterlimit:4;stroke-dasharray:none;stroke-opacity:1"
       d="m 22.149047,25.413031 c 0,0 -0.342954,-12.146929 11.572524,-10.409206 l 2.422186,1.040264 c -6.018666,3.105093 -3.842213,0.658875 -10.876774,9.359808 l -8.680773,3.210895 z"
       id="path4646" /><path
       style="fill:#ffffff;stroke:#000000;stroke-width:1.64451122;stroke-linecap:butt;stroke-linejoin:miter;stroke-miterlimit:4;stroke-dasharray:none;stroke-opacity:1"
       d="m 36.852357,27.929883 -6.122202,11.359713 c 0,0 -10.649425,15.631485 7.040528,15.567017 11.553446,-0.04214 8.91742,-8.865232 5.742417,-15.000737 C 40.665848,34.35372 36.852357,27.929883 36.852357,27.929883 Z"
       id="path4528" /><path
       style="fill:#000000;stroke:#000000;stroke-width:0.14503674px;stroke-linecap:butt;stroke-linejoin:miter;stroke-opacity:1"
       d="m 41.43798,40.16697 c 0,0 0.404534,5.428201 -0.709265,8.321909 -0.933811,2.426084 -4.56246,1.850516 -4.949716,2.325027 -2.322562,2.845869 7.290099,2.136449 8.348378,-0.495468 C 45.534321,46.819399 41.43798,40.16697 41.43798,40.16697 Z"
       id="path4638" /></g></svg>
