<?xml version="1.0" encoding="UTF-8" standalone="no"?>
<svg
   xmlns:dc="http://purl.org/dc/elements/1.1/"
   xmlns:cc="http://creativecommons.org/ns#"
   xmlns:rdf="http://www.w3.org/1999/02/22-rdf-syntax-ns#"
   xmlns:svg="http://www.w3.org/2000/svg"
   xmlns="http://www.w3.org/2000/svg"
   id="svg4844"
   version="1.1"
   viewBox="0 0 66.145832 66.145835"
   height="250"
   width="250">
  <defs
     id="defs4838" />
  <metadata
     id="metadata4841">
    <rdf:RDF>
      <cc:Work
         rdf:about="">
        <dc:format>image/svg+xml</dc:format>
        <dc:type
           rdf:resource="http://purl.org/dc/dcmitype/StillImage" />
        <dc:title></dc:title>
      </cc:Work>
    </rdf:RDF>
  </metadata>
  <g
     transform="matrix(0.3919989,0,0,0.3919989,6.2937,-70.25541)"
     id="g4900">
    <path
       id="path4644"
       d="m 19.01048,265.64037 7.83946,12.14851 0.0981,65.71458 91.84821,0.75595 -1.51191,-108.85714 -9.07143,-9.82738 0.26727,-37.92732 c 0,0 -8.00859,-3.17224 -12.210378,-3.13295 -4.423151,0.0414 -12.789771,3.53779 -12.789771,3.53779 l -1.02322,16.57723 c 0,0 -40.011751,-14.58451 -49.839131,6.58216 -9.82739,21.16666 -13.60715,54.42857 -13.60715,54.42857 z"
       style="fill:#000000;stroke:#ffffff;stroke-width:3;stroke-linecap:butt;stroke-linejoin:miter;stroke-miterlimit:4;stroke-dasharray:none;stroke-opacity:1" />
    <path
       id="path4646"
       d="m 38.659929,244.05283 c 0,0 -0.874883,-30.98715 29.521829,-26.55417 l 6.179062,2.65374 c -15.353782,7.92118 -9.80159,1.68081 -27.746949,23.87713 l -22.144891,8.19108 z"
       style="fill:#ffffff;stroke:#000000;stroke-width:3;stroke-linecap:butt;stroke-linejoin:miter;stroke-miterlimit:4;stroke-dasharray:none;stroke-opacity:1" />
    <g
       transform="matrix(1.4608761,0,0,1.3385916,-62.995633,48.251219)"
       id="g4642">
      <path
         style="fill:#ffffff;stroke:#000000;stroke-width:3;stroke-linecap:butt;stroke-linejoin:miter;stroke-miterlimit:4;stroke-dasharray:none;stroke-opacity:1"
         d="m 96.484302,151.07085 -10.69078,21.64883 c 0,0 -18.59636,29.78978 12.29439,29.66692 20.174988,-0.0803 15.571878,-16.89496 10.027588,-28.58773 -4.97196,-10.48576 -11.631198,-22.72802 -11.631198,-22.72802 z"
         id="path4528" />
      <path
         style="fill:#000000;stroke:#000000;stroke-width:0.26458332px;stroke-linecap:butt;stroke-linejoin:miter;stroke-opacity:1"
         d="m 104.49186,174.39174 c 0,0 0.70641,10.34482 -1.23854,15.85952 -1.63065,4.62352 -7.967111,3.52663 -8.64335,4.43093 -4.055729,5.42353 12.7302,4.07155 14.5782,-0.94424 2.45685,-6.66831 -4.69631,-19.34621 -4.69631,-19.34621 z"
         id="path4638" />
    </g>
  </g>
</svg>
