<?xml version="1.0" encoding="UTF-8" standalone="no"?>
<svg
   xmlns:dc="http://purl.org/dc/elements/1.1/"
   xmlns:cc="http://creativecommons.org/ns#"
   xmlns:rdf="http://www.w3.org/1999/02/22-rdf-syntax-ns#"
   xmlns:svg="http://www.w3.org/2000/svg"
   xmlns="http://www.w3.org/2000/svg"
   width="250"
   height="250"
   viewBox="0 0 66.145832 66.145835"
   version="1.1"
   id="svg4844">
  <defs
     id="defs4838" />
  <metadata
     id="metadata4841">
    <rdf:RDF>
      <cc:Work
         rdf:about="">
        <dc:format>image/svg+xml</dc:format>
        <dc:type
           rdf:resource="http://purl.org/dc/dcmitype/StillImage" />
        <dc:title></dc:title>
      </cc:Work>
    </rdf:RDF>
  </metadata>
  <g
     id="layer1"
     transform="translate(0,-230.85415)">
    <g
       id="g4890"
       transform="matrix(0.45193166,0,0,0.45193166,1.1616151,142.07067)">
      <g
         id="g4900"
         transform="matrix(0.86738535,0,0,0.86738535,11.355887,40.997504)">
        <g
           id="g4962"
           transform="matrix(0.41134033,0,0,0.41134033,41.489367,161.328)">
          <path
             style="fill:#000000;stroke:#ffffff;stroke-width:6.72372437;stroke-linecap:butt;stroke-linejoin:miter;stroke-miterlimit:4;stroke-dasharray:none;stroke-opacity:1"
             d="m -34.764174,412.23677 4.972605,-218.83392 -38.123365,-0.82843 0.72722,-41.43844 121.828987,0.26337 3.4209,38.95213 -39.981892,1.28118 -2.362,137.57559 2.569549,76.39738 c 28.462653,45.87147 -85.181134,13.4141 -53.052004,6.63114 z"
             id="path4830-4-7" />
          <path
             style="fill:#000000;stroke:#ffffff;stroke-width:6.72372437;stroke-linecap:butt;stroke-linejoin:miter;stroke-miterlimit:4;stroke-dasharray:none;stroke-opacity:1"
             d="m 3.6542413,351.74683 4.97261,-218.83392 -38.1233603,-0.82843 0.72721,-41.438432 121.82899,0.263361 3.4209,38.952131 -39.98189,1.28118 -2.362,137.57559 2.56955,76.39739 c 28.46265,45.87147 -85.18114,13.41409 -53.0520097,6.63113 z"
             id="path4830-4" />
          <path
             style="fill:#000000;stroke:#ffffff;stroke-width:6.72372437;stroke-linecap:butt;stroke-linejoin:miter;stroke-miterlimit:4;stroke-dasharray:none;stroke-opacity:1"
             d="M 50.904873,325.22525 V 246.45357 H 19.310108 V 220.19634 H 173.5669 l -1.85853,27.80177 h -37.17029 l -1.57428,76.39739 71.03858,1.7494 0.88723,122.22933 -67.23745,1.05331 -216.542336,0.6292 1.289371,-122.92481 z"
             id="path4830" />
          <path
             style="fill:#000000;stroke:#ffffff;stroke-width:5.0234129;stroke-linecap:round;stroke-linejoin:miter;stroke-miterlimit:4;stroke-dasharray:none;stroke-opacity:1"
             d="M 95.714505,179.13653 C 82.901217,171.81247 72.998267,168.13081 79.480353,157.36321 96.900424,128.42618 124.74149,141.746 124.74149,141.746 c 0,0 -33.250873,-19.008 -13.89955,-39.87714 19.35133,-20.869133 46.15176,5.96479 46.15176,5.96479 l 1.07508,1.36987 c -3.24706,-14.707774 1.1596,-21.394621 11.04516,-20.332616 14.02817,-2.134159 22.28211,14.615006 22.28211,14.615006 0,0 9.3515,-71.972043 53.42953,-38.929239 29.68564,40.666269 -1.54362,53.812099 -41.60372,72.841589 0,0 49.72349,14.38592 28.96176,33.57027 -32.02111,29.58827 -66.58934,-39.6571 -45.08786,-21.3966 21.50147,18.2605 18.30654,41.02869 1.07506,50.43374 -19.0344,10.38909 -73.10499,-11.30412 -63.42933,-21.73869 9.67566,-10.43455 8.76598,17.97118 0.96703,21.07109 -11.67674,4.64122 -41.819821,12.84126 -29.994015,-20.20154 z"
             id="path4834" />
        </g>
      </g>
    </g>
  </g>
</svg>
