<?xml version="1.0" encoding="UTF-8" standalone="no"?>
<svg
   xmlns:dc="http://purl.org/dc/elements/1.1/"
   xmlns:cc="http://creativecommons.org/ns#"
   xmlns:rdf="http://www.w3.org/1999/02/22-rdf-syntax-ns#"
   xmlns:svg="http://www.w3.org/2000/svg"
   xmlns="http://www.w3.org/2000/svg"
   id="svg4844"
   version="1.1"
   viewBox="0 0 66.145832 66.145835"
   height="250"
   width="250">
  <defs
     id="defs4838" />
  <metadata
     id="metadata4841">
    <rdf:RDF>
      <cc:Work
         rdf:about="">
        <dc:format>image/svg+xml</dc:format>
        <dc:type
           rdf:resource="http://purl.org/dc/dcmitype/StillImage" />
        <dc:title></dc:title>
      </cc:Work>
    </rdf:RDF>
  </metadata>
  <path
     id="path6807"
     d="m 10.187749,49.83695 -0.1938016,14.410674 46.0925036,-0.06579 0.04433,-13.147702 -6.90031,0.117047 -3.446108,-22.354699 -0.201316,-2.08989 c 0,0 2.954693,0.683526 4.16193,0 1.340828,-0.759164 2.378247,-3.963745 2.378247,-3.963745 0,0 5.231598,0.514818 5.747428,-1.38731 0.619114,-2.282987 -5.111883,-4.922057 -5.111883,-4.922057 0,0 14.943931,-6.321776 7.919704,-12.3102552 -5.555034,-4.73592357 -9.571458,6.3808632 -9.571458,6.3808632 0,0 -2.174404,-2.9563377 -3.653086,-2.6645411 -1.32028,0.2605382 -2.11347,3.4398271 -2.11347,3.4398271 0,0 -6.971713,-3.9452921 -8.874019,-1.6168784 -1.595504,1.9528894 2.813063,7.0229164 2.813063,7.0229164 0,0 -2.981651,-0.673225 -4.398561,-0.284553 -1.46669,0.402327 -3.765555,2.576432 -3.765555,2.576432 0,0 -11.094593,-3.868591 -11.494855,2.972808 -0.120514,2.059862 4.535015,2.62777 4.535015,2.62777 0,0 -2.467204,1.178646 -2.553144,2.326909 -0.101645,1.358112 -2.576433,0.792748 -2.576433,0.792748 l -1.319615,3.982684 -0.621694,15.138996 -0.833311,3.075281 z"
     style="fill:#ffffff;stroke:#ffffff;stroke-width:3.00000001;stroke-linecap:butt;stroke-linejoin:miter;stroke-miterlimit:4;stroke-dasharray:none;stroke-opacity:1" />
  <path
     id="path4830-4-7"
     d="m 13.190477,58.351592 3.894184,-11.532388 c -0.01354,-3.901639 0.327099,-6.834557 0.62169,-15.138994 l 5.197714,2.307752 0.178849,9.038702 2.939309,-0.125972 0.287348,-10.282591 4.359629,1.885188 0.372964,6.626446 6.54099,-1.531735 2.944185,18.415339 -20.358653,-8.17742 0.35519,7.835547 c 3.934405,4.704722 -11.7746241,1.375793 -7.333402,0.680115 z"
     style="fill:#444444;stroke:#ffffff;stroke-width:0.97756529;stroke-linecap:butt;stroke-linejoin:miter;stroke-miterlimit:4;stroke-dasharray:none;stroke-opacity:1;fill-opacity:1" />
  <path
     id="path4834"
     d="m 33.901315,22.955685 c -0.0593,-0.03778 -1.503362,6.606691 -3.43001,8.454574 -1.080561,1.036385 -2.107649,-3.129176 -3.376658,-1.902111 -3.933462,3.803452 -3.43548,0.158786 -3.533415,0.09823 -0.700898,-0.433414 -5.369589,-2.423919 0.594311,-5.028509 -7.88277,-0.890611 -5.077625,-2.685402 -3.12218,-5.812212 1.62394,-2.596722 10.017659,0.788452 10.328507,0.328181 3.29894,-4.884698 7.91763,-2.408426 7.91763,-2.408426 0,0 -5.482126,-3.492587 -1.941203,-6.9722629 3.540925,-3.4796738 7.833201,1.3229149 7.833201,1.3229149 l 0.168956,0.24331 c -0.394303,-2.5596192 0.433262,-3.6859669 2.113473,-3.439827 2.42428,-0.2792923 3.653086,2.664541 3.653086,2.664541 0,0 2.390339,-12.3650561 9.571457,-6.3808631 4.634258,7.2087841 -0.854759,9.2797271 -7.919703,12.3102551 0,0 8.352066,2.79934 4.588247,5.979211 -5.804989,4.904355 -10.96123,-7.269035 -7.481757,-3.980135 3.479473,3.2889 2.682803,7.199052 -0.369506,8.713162 -3.371668,1.672527 -12.387524,-2.415882 -10.61706,-4.155719 1.770459,-1.739836 1.303028,3.158041 -0.06575,3.643627 -2.049357,0.727022 -7.298196,1.951077 -4.911628,-3.677937 z"
     style="fill:#444444;stroke:#ffffff;stroke-width:0.89225733;stroke-linecap:round;stroke-linejoin:miter;stroke-miterlimit:4;stroke-dasharray:none;stroke-opacity:1;fill-opacity:1" />
  <path
     id="path4830"
     d="M 32.554032,49.543535 C 33.444201,39.198938 35.738429,35.572718 37.134494,28.61992 l 8.649867,0.176564 c 0.517688,6.226906 2.994767,14.718361 3.446107,22.354697 L 56.130777,51.034135 56.086451,64.181836 44.193663,64.343933 9.9939476,64.247625 10.187749,49.83695 Z"
     style="fill:#444444;stroke:#ffffff;stroke-width:1;stroke-linecap:butt;stroke-linejoin:miter;stroke-miterlimit:4;stroke-dasharray:none;stroke-opacity:1;fill-opacity:1" />
</svg>
