<?xml version="1.0" encoding="UTF-8" standalone="no"?>
<svg
   xmlns:dc="http://purl.org/dc/elements/1.1/"
   xmlns:cc="http://creativecommons.org/ns#"
   xmlns:rdf="http://www.w3.org/1999/02/22-rdf-syntax-ns#"
   xmlns:svg="http://www.w3.org/2000/svg"
   xmlns="http://www.w3.org/2000/svg"
   version="1.1"
   x="0px"
   y="0px"
   viewBox="-143.5 -19.058 100 100"
   enable-background="new -143.5 -19.058 1024 1024"
   xml:space="preserve"
   id="svg2"
   width="100"
   height="100"><metadata
     id="metadata68"><rdf:RDF><cc:Work
         rdf:about=""><dc:format>image/svg+xml</dc:format><dc:type
           rdf:resource="http://purl.org/dc/dcmitype/StillImage" /><dc:title></dc:title></cc:Work></rdf:RDF></metadata><defs
     id="defs66" /><path
     id="path6807"
     d="m -127.02351,55.354646 -0.29299,21.786216 69.683154,-0.09946 0.06702,-19.876841 -10.431964,0.176953 -5.209864,-33.79608 -0.304352,-3.159518 c 0,0 4.466937,1.033362 6.292051,0 2.027079,-1.147713 3.59546,-5.992434 3.59546,-5.992434 0,0 7.909188,0.778308 8.689025,-2.09735 0.935984,-3.4514453 -7.728201,-7.4412204 -7.728201,-7.4412204 0,0 22.5924,-9.5573305 11.973096,-18.6107786 -8.398162,-7.159822 -14.470236,9.6466586 -14.470236,9.6466586 0,0 -3.287287,-4.4694239 -5.522775,-4.0282826 -1.996014,0.3938845 -3.195167,5.2003685 -3.195167,5.2003685 0,0 -10.539913,-5.964536 -13.41584,-2.4444146 -2.4121,2.9523997 4.25282,10.6173223 4.25282,10.6173223 0,0 -4.507693,-1.017789 -6.649793,-0.4301904 -2.217358,0.6082424 -5.692808,3.8950783 -5.692808,3.8950783 0,0 -16.772926,-5.8485785 -17.378046,4.4943239 -0.1822,3.114122 6.85608,3.972692 6.85608,3.972692 0,0 -3.72994,1.78189 -3.85987,3.517846 -0.15367,2.053209 -3.89508,1.198485 -3.89508,1.198485 l -1.99501,6.021066 -0.93988,22.887301 -1.25981,4.649243 z"
     style="fill:#ffffff;stroke:#ffffff;stroke-width:6.53499985;stroke-linecap:butt;stroke-linejoin:round;stroke-miterlimit:4;stroke-dasharray:none;stroke-opacity:1" /><path
     id="path4830-4-7"
     d="m -122.48395,68.227176 5.88727,-17.434791 c -0.0205,-5.898541 0.49451,-10.332559 0.93988,-22.887298 l 7.85796,3.488885 0.27038,13.664809 4.44368,-0.190446 0.43442,-15.545334 6.590934,2.850048 0.563851,10.017934 9.888741,-2.315694 4.451051,27.840512 -30.778437,-12.362713 0.53698,11.845866 c 5.94808,7.11265 -17.801,2.079939 -11.08672,1.028205 z"
     style="fill:#000000;stroke:#ffffff;stroke-width:1.47789395;stroke-linecap:butt;stroke-linejoin:miter;stroke-miterlimit:4;stroke-dasharray:none;stroke-opacity:1" /><path
     id="path4834"
     d="m -91.173079,14.715254 c -0.08965,-0.05712 -2.272799,9.988068 -5.185527,12.781718 -1.633604,1.566818 -3.186367,-4.730723 -5.104864,-2.875632 -5.94666,5.7501 -5.1938,0.240054 -5.34186,0.148505 -1.05963,-0.65524 -8.1178,-3.664507 0.89849,-7.602155 -11.91726,-1.346436 -7.67641,-4.059821 -4.72015,-8.7869665 2.45509,-3.9257529 15.144807,1.1919904 15.61475,0.4961476 4.987374,-7.3847401 11.96996,-3.6410849 11.96996,-3.6410849 0,0 -8.287938,-5.28013143 -2.934732,-10.5407437 5.353209,-5.2606085 11.84232,1.9999973 11.84232,1.9999973 l 0.255429,0.3678387 c -0.596112,-3.8696605 0.65501,-5.5724853 3.195172,-5.2003683 3.665053,-0.4222372 5.522775,4.0282824 5.522775,4.0282824 0,0 3.613741,-18.6936276 14.470234,-9.6466586 7.006123,10.8983187 -1.292234,14.02919308 -11.973094,18.6107786 0,0 12.626746,4.232073 6.936563,9.0394374 -8.776047,7.414458 -16.571309,-10.9894075 -11.311003,-6.0172123 5.260306,4.9721953 4.055891,10.8836063 -0.558623,13.1726543 -5.097325,2.528545 -18.727595,-3.652357 -16.050988,-6.282662 2.676599,-2.630303 1.969932,4.774362 -0.0994,5.508476 -3.09824,1.09912 -11.033493,2.949659 -7.425453,-5.560346 z"
     style="fill:#000000;stroke:#ffffff;stroke-width:1.3489244;stroke-linecap:round;stroke-linejoin:miter;stroke-miterlimit:4;stroke-dasharray:none;stroke-opacity:1" /><path
     id="path4830"
     d="m -93.209916,54.911058 c 1.345767,-15.639075 4.814206,-21.121235 6.924793,-31.632551 l 13.076964,0.266931 c 0.782646,9.413905 4.527521,22.25138 5.209862,33.796077 l 10.431963,-0.176951 -0.06701,19.876839 -17.979648,0.24506 -51.703508,-0.1456 0.29299,-21.786217 z"
     style="fill:#000000;stroke:#ffffff;stroke-width:1.51181102;stroke-linecap:butt;stroke-linejoin:miter;stroke-miterlimit:4;stroke-dasharray:none;stroke-opacity:1" /></svg>