<?xml version="1.0" encoding="UTF-8" standalone="no"?>
<svg
   xmlns:dc="http://purl.org/dc/elements/1.1/"
   xmlns:cc="http://creativecommons.org/ns#"
   xmlns:rdf="http://www.w3.org/1999/02/22-rdf-syntax-ns#"
   xmlns:svg="http://www.w3.org/2000/svg"
   xmlns="http://www.w3.org/2000/svg"
   xmlns:sodipodi="http://sodipodi.sourceforge.net/DTD/sodipodi-0.dtd"
   xmlns:inkscape="http://www.inkscape.org/namespaces/inkscape"
   version="1.1"
   x="0px"
   y="0px"
   viewBox="0 0 100 125"
   style="enable-background:new 0 0 100 100;"
   xml:space="preserve"
   id="svg5702"
   inkscape:version="0.91 r13725"
   sodipodi:docname="noun_powerplant.svg"><metadata
     id="metadata5714"><rdf:RDF><cc:Work
         rdf:about=""><dc:format>image/svg+xml</dc:format><dc:type
           rdf:resource="http://purl.org/dc/dcmitype/StillImage" /></cc:Work></rdf:RDF></metadata><defs
     id="defs5712" /><sodipodi:namedview
     pagecolor="#ffffff"
     bordercolor="#666666"
     borderopacity="1"
     objecttolerance="10"
     gridtolerance="10"
     guidetolerance="10"
     inkscape:pageopacity="0"
     inkscape:pageshadow="2"
     inkscape:window-width="1859"
     inkscape:window-height="1056"
     id="namedview5710"
     showgrid="false"
     inkscape:zoom="5.3400704"
     inkscape:cx="29.34322"
     inkscape:cy="62.5"
     inkscape:window-x="61"
     inkscape:window-y="24"
     inkscape:window-maximized="1"
     inkscape:current-layer="svg5702" /><g
     id="g5704"
     style="fill:#444444;fill-opacity:1"><path
       d="M78.5,68h-1.6V52.2c0-1.5-1.3-2.8-2.8-2.8h-6.5l-1.9-11.1H66c1.5,0,2.8-1.3,2.8-2.8s-1.3-2.8-2.8-2.8H48.7   c-1.5,0-2.8,1.3-2.8,2.8s1.3,2.8,2.8,2.8h0.3l-1.9,11.1h-6.5c-1.5,0-2.8,1.3-2.8,2.8V68H21.5c-1.5,0-2.8,1.3-2.8,2.8v20.9   c0,1.5,1.3,2.8,2.8,2.8h56.9c1.5,0,2.8-1.3,2.8-2.8V70.8C81.3,69.2,80,68,78.5,68z M38.1,88.5c0,0.3-0.3,0.6-0.6,0.6h-12   c-0.3,0-0.6-0.3-0.6-0.6v-4.9c0-0.3,0.3-0.6,0.6-0.6h12c0.3,0,0.6,0.3,0.6,0.6V88.5z M38.1,79c0,0.3-0.3,0.6-0.6,0.6h-12   c-0.3,0-0.6-0.3-0.6-0.6V74c0-0.3,0.3-0.6,0.6-0.6h12c0.3,0,0.6,0.3,0.6,0.6V79z M56.6,88.5c0,0.3-0.3,0.6-0.6,0.6H44   c-0.3,0-0.6-0.3-0.6-0.6v-4.9c0-0.3,0.3-0.6,0.6-0.6h12c0.3,0,0.6,0.3,0.6,0.6V88.5z M56.6,79c0,0.3-0.3,0.6-0.6,0.6H44   c-0.3,0-0.6-0.3-0.6-0.6V74c0-0.3,0.3-0.6,0.6-0.6h12c0.3,0,0.6,0.3,0.6,0.6V79z M75.1,88.5c0,0.3-0.3,0.6-0.6,0.6h-12   c-0.3,0-0.6-0.3-0.6-0.6v-4.9c0-0.3,0.3-0.6,0.6-0.6h12c0.3,0,0.6,0.3,0.6,0.6V88.5z M75.1,79c0,0.3-0.3,0.6-0.6,0.6h-12   c-0.3,0-0.6-0.3-0.6-0.6V74c0-0.3,0.3-0.6,0.6-0.6h12c0.3,0,0.6,0.3,0.6,0.6V79z"
       id="path5706"
       style="fill:#444444;fill-opacity:1" /><path
       d="M54.4,25.5C55.3,27,57,28,58.9,28c2.8,0,5-2.1,5.3-4.9c0,0,0,0,0,0c2.6,0,4.8-2.1,4.8-4.8c0-0.5-0.1-0.9-0.2-1.3   c1.8-0.3,3.2-1.8,3.2-3.6c0-0.5-0.1-1.1-0.3-1.5c1-0.1,1.7-0.9,1.7-1.9c0-0.6-0.3-1.1-0.6-1.4c0.6-0.2,1.1-0.8,1.1-1.5   c0-0.9-0.7-1.6-1.6-1.6c-0.6,0-1.2,0.4-1.4,0.9c-0.3-0.2-0.6-0.3-1-0.3c-0.8,0-1.5,0.5-1.8,1.3c-0.3-0.1-0.6-0.2-0.9-0.2   c-1.4,0-2.5,1.1-2.5,2.5c0,0,0,0,0,0.1c-0.4-0.3-1-0.4-1.5-0.4c-1.5,0-2.7,1.1-3,2.5c-0.5-0.2-1.1-0.3-1.7-0.3   c-2.2,0-4,1.6-4.3,3.7c-2.3,0.6-4,2.6-4,5.1C50,22.9,51.9,25.1,54.4,25.5z"
       id="path5708"
       style="fill:#444444;fill-opacity:1" /></g></svg>