<?xml version="1.0" encoding="UTF-8" standalone="no"?>
<svg
   xmlns:i="http://ns.adobe.com/AdobeIllustrator/10.0/"
   xmlns:dc="http://purl.org/dc/elements/1.1/"
   xmlns:cc="http://creativecommons.org/ns#"
   xmlns:rdf="http://www.w3.org/1999/02/22-rdf-syntax-ns#"
   xmlns:svg="http://www.w3.org/2000/svg"
   xmlns="http://www.w3.org/2000/svg"
   id="svg7409"
   xml:space="preserve"
   style="enable-background:new 0 0 100 100;"
   viewBox="0 0 100 125"
   y="0px"
   x="0px"
   version="1.1"><metadata
     id="metadata7415"><rdf:RDF><cc:Work
         rdf:about=""><dc:format>image/svg+xml</dc:format><dc:type
           rdf:resource="http://purl.org/dc/dcmitype/StillImage" /><dc:title></dc:title></cc:Work></rdf:RDF></metadata><defs
     id="defs7413" /><ellipse
     ry="22.097086"
     rx="23.969721"
     cy="33.24091"
     cx="52.433765"
     id="path7962"
     style="fill:#ffffff;fill-opacity:1;stroke:#ffffff;stroke-width:3.77952766;stroke-miterlimit:4;stroke-dasharray:none;stroke-opacity:1" /><g
     style="stroke-width:3.77952756;stroke-miterlimit:4;stroke-dasharray:none;stroke:#ffffff;stroke-opacity:1"
     i:extraneous="self"
     id="g7405"><path
       style="stroke-width:3.77952756;stroke-miterlimit:4;stroke-dasharray:none;stroke:#ffffff;stroke-opacity:1"
       d="m 50,2.5 c -17.8,0 -32.2,14.4 -32.2,32.2 0,20.1 19.1,48.5 27.9,60.6 2.2,3 6.5,3 8.7,0 C 63.2,83.2 82.3,54.8 82.3,34.7 82.2,16.9 67.8,2.5 50,2.5 Z m 0.2,47.6 c -8.6,0 -15.6,-7 -15.6,-15.6 0,-8.6 7,-15.6 15.6,-15.6 8.6,0 15.6,7 15.6,15.6 0,8.7 -7,15.6 -15.6,15.6 z"
       id="path7403" /></g></svg>