<?xml version="1.0" encoding="UTF-8" standalone="no"?>
<svg
   xmlns:dc="http://purl.org/dc/elements/1.1/"
   xmlns:cc="http://creativecommons.org/ns#"
   xmlns:rdf="http://www.w3.org/1999/02/22-rdf-syntax-ns#"
   xmlns:svg="http://www.w3.org/2000/svg"
   xmlns="http://www.w3.org/2000/svg"
   xmlns:sodipodi="http://sodipodi.sourceforge.net/DTD/sodipodi-0.dtd"
   xmlns:inkscape="http://www.inkscape.org/namespaces/inkscape"
   height="21"
   width="21"
   id="svg2"
   y="0px"
   x="0px"
   version="1.1"
   viewBox="0 0 21 21"
   inkscape:version="0.91 r13725"
   sodipodi:docname="oil-15.svg">
  <sodipodi:namedview
     pagecolor="#ffffff"
     bordercolor="#666666"
     borderopacity="1"
     objecttolerance="10"
     gridtolerance="10"
     guidetolerance="10"
     inkscape:pageopacity="0"
     inkscape:pageshadow="2"
     inkscape:window-width="1859"
     inkscape:window-height="1056"
     id="namedview4287"
     showgrid="false"
     inkscape:zoom="43.619048"
     inkscape:cx="10.5"
     inkscape:cy="10.5"
     inkscape:window-x="61"
     inkscape:window-y="24"
     inkscape:window-maximized="1"
     inkscape:current-layer="svg2" />
  <metadata
     id="metadata30">
    <rdf:RDF>
      <cc:Work
         rdf:about="">
        <dc:format>image/svg+xml</dc:format>
        <dc:type
           rdf:resource="http://purl.org/dc/dcmitype/StillImage" />
        <dc:title>027 - Oil </dc:title>
      </cc:Work>
    </rdf:RDF>
  </metadata>
  <defs
     id="defs28" />
  <title
     id="title4">027 - Oil </title>
  <desc
     id="desc6">Created with Sketch.</desc>
  <g
     transform="matrix(0.375,0,0,0.375,3,0)"
     style="fill:#434343;fill-rule:evenodd;stroke:none;stroke-width:1;fill-opacity:1"
     id="g8">
    <g
       style="fill:#434343;fill-rule:nonzero;fill-opacity:1"
       id="g10">
      <path
         id="path12"
         d="M 1,8 39,8 C 39.552285,8 40,7.5522847 40,7 40,6.4477152 39.552285,6 39,6 L 1,6 C 0.44771525,6 0,6.4477152 0,7 0,7.5522847 0.44771525,8 1,8 Z"
         style="fill:#434343;fill-opacity:1" />
      <path
         id="path14"
         d="M 39,54 1,54 c -0.55228475,0 -1,0.447715 -1,1 0,0.552285 0.44771525,1 1,1 l 38,0 c 0.552285,0 1,-0.447715 1,-1 0,-0.552285 -0.447715,-1 -1,-1 z"
         style="fill:#434343;fill-opacity:1" />
      <rect
         id="rect16"
         height="4"
         width="6"
         y="0"
         x="27"
         style="fill:#434343;fill-opacity:1" />
      <path
         id="path18"
         d="m 39,30 -7,0 c -0.552285,0 -1,-0.447715 -1,-1 0,-0.552285 0.447715,-1 1,-1 l 5,0 0,-18 -34,0 0,18 5,0 c 0.5522848,0 1,0.447715 1,1 0,0.552285 -0.4477152,1 -1,1 L 1,30 C 0.73907757,29.997372 0.48839634,30.101402 0.306,30.288 0.11030803,30.473071 -3.9543732e-4,30.730655 0,31 c 0,0.552285 0.44771525,1 1,1 l 6,0 c 0.5522847,0 1,0.447715 1,1 0,0.552285 -0.4477153,1 -1,1 l -4,0 0,18 34,0 0,-18 -4,0 c -0.552285,0 -1,-0.447715 -1,-1 0,-0.552285 0.447715,-1 1,-1 l 6,0 c 0.260922,0.0026 0.511604,-0.101402 0.694,-0.288 C 39.889692,31.526929 40.000395,31.269344 40,31 40,30.447715 39.552285,30 39,30 Z M 20,43 c -5.514,0 -10,-4.156 -10,-9.265 0,-5.581 8.815,-17.8 9.19,-18.322 0.19721,-0.245487 0.49511,-0.388292 0.81,-0.388292 0.31489,0 0.61279,0.142805 0.81,0.388292 C 21.185,15.931 30,28.154 30,33.735 30,38.844 25.514,43 20,43 Z"
         style="fill:#434343;fill-opacity:1" />
      <path
         id="path20"
         d="m 12,33.735 c 0,4.006 3.589,7.265 8,7.265 4.411,0 8,-3.259 8,-7.265 0,-3.7 -5.19,-11.953 -8,-16 -2.809,4.048 -8,12.299 -8,16 z"
         style="fill:#434343;fill-opacity:1" />
    </g>
  </g>
</svg>
