<?xml version="1.0" encoding="UTF-8" standalone="no"?>
<svg
   xmlns:dc="http://purl.org/dc/elements/1.1/"
   xmlns:cc="http://creativecommons.org/ns#"
   xmlns:rdf="http://www.w3.org/1999/02/22-rdf-syntax-ns#"
   xmlns:svg="http://www.w3.org/2000/svg"
   xmlns="http://www.w3.org/2000/svg"
   xmlns:sodipodi="http://sodipodi.sourceforge.net/DTD/sodipodi-0.dtd"
   xmlns:inkscape="http://www.inkscape.org/namespaces/inkscape"
   height="21"
   width="21"
   id="svg2"
   xml:space="preserve"
   viewBox="0 0 21 21"
   y="0px"
   x="0px"
   version="1.1"
   inkscape:version="0.91 r13725"
   sodipodi:docname="toxic-15.svg"><sodipodi:namedview
     pagecolor="#ffffff"
     bordercolor="#666666"
     borderopacity="1"
     objecttolerance="10"
     gridtolerance="10"
     guidetolerance="10"
     inkscape:pageopacity="0"
     inkscape:pageshadow="2"
     inkscape:window-width="1859"
     inkscape:window-height="1056"
     id="namedview4376"
     showgrid="false"
     inkscape:zoom="43.619048"
     inkscape:cx="10.5"
     inkscape:cy="10.5"
     inkscape:window-x="61"
     inkscape:window-y="24"
     inkscape:window-maximized="1"
     inkscape:current-layer="svg2" /><metadata
     id="metadata22"><rdf:RDF><cc:Work
         rdf:about=""><dc:format>image/svg+xml</dc:format><dc:type
           rdf:resource="http://purl.org/dc/dcmitype/StillImage" /><dc:title /></cc:Work></rdf:RDF></metadata><defs
     id="defs20" /><g
     id="g4"
     transform="matrix(0.69996081,0,0,0.69996081,-272.63415,-181.98981)"
     style="fill:#434343;fill-opacity:1"><g
       id="g6"
       style="fill:#434343;fill-opacity:1"><path
         id="path8"
         d="m 417.453,283.284 c -1.041,-0.367 -2.184,0.179 -2.551,1.221 l -5.895,-2.079 5.893,-2.079 c 0.367,1.042 1.51,1.588 2.553,1.221 1.041,-0.367 1.588,-1.511 1.221,-2.552 -0.201,-0.566 -0.633,-0.978 -1.15,-1.185 0.273,-0.485 0.352,-1.078 0.152,-1.644 -0.367,-1.043 -1.512,-1.589 -2.553,-1.221 -1.041,0.367 -1.588,1.51 -1.221,2.551 l -2.902,1.025 0,1.829 -0.242,0.281 c -0.049,0.058 -0.813,0.907 -2.33,1.568 -0.984,0.429 -2.279,0.779 -3.928,0.779 -1.648,0 -2.943,-0.351 -3.928,-0.779 -1.518,-0.661 -2.279,-1.511 -2.33,-1.568 l -0.242,-0.281 0,-1.829 -2.902,-1.024 c 0.367,-1.041 -0.18,-2.184 -1.221,-2.551 -1.041,-0.368 -2.184,0.178 -2.551,1.221 -0.199,0.565 -0.123,1.158 0.15,1.644 -0.518,0.206 -0.949,0.618 -1.148,1.185 -0.367,1.041 0.178,2.185 1.221,2.552 1.041,0.367 2.184,-0.179 2.551,-1.221 l 5.893,2.079 -5.893,2.079 c -0.367,-1.042 -1.51,-1.588 -2.553,-1.221 -1.041,0.368 -1.588,1.511 -1.221,2.552 0.201,0.566 0.633,0.979 1.15,1.186 -0.273,0.484 -0.352,1.077 -0.15,1.643 0.367,1.042 1.51,1.589 2.551,1.221 1.041,-0.367 1.588,-1.51 1.221,-2.551 l 9.402,-3.317 9.402,3.317 c -0.367,1.041 0.18,2.184 1.221,2.551 1.041,0.368 2.186,-0.179 2.553,-1.221 0.199,-0.565 0.121,-1.158 -0.152,-1.643 0.518,-0.207 0.949,-0.619 1.15,-1.186 0.367,-1.042 -0.18,-2.185 -1.221,-2.553 z"
         style="fill:#434343;fill-opacity:1" /><path
         id="path10"
         d="m 402.07,281.692 c 0.688,0.185 1.494,0.308 2.43,0.308 0.935,0 1.742,-0.123 2.43,-0.308 C 409.023,281.132 410,280 410,280 l 0,-1.105 0,-1.895 -1,0 0,1 -1,0 0,-1 -1,0 0,1 -1,0 0,-1 -1,0 0,1 -1,0 0,-1 -1,0 0,1 -1,0 0,-1 -1,0 0,1 -1,0 0,-1 -1,0 0,1.895 0,1.105 c 0,0 0.977,1.132 3.07,1.692 z"
         style="fill:#434343;fill-opacity:1" /><path
         id="path12"
         d="m 404.5,260 c -4.693,0 -8.5,3.582 -8.5,8 l 0,5 c 0,0 3,0 3,3 l 1,0 0,-1 1,0 0,1 1,0 0,-1 1,0 0,1 1,0 0,-1 1,0 0,1 1,0 0,-1 1,0 0,1 1,0 0,-1 1,0 0,1 1,0 c 0,-3 3,-3 3,-3 l 0,-5 c 0,-4.418 -3.805,-8 -8.5,-8 z m -3.5,10 c -1.104,0 -2,-0.896 -2,-2 0,-1.104 0.896,-2 2,-2 1.105,0 2,0.896 2,2 0,1.104 -0.895,2 -2,2 z m 2,3 1,-3 1,0 1,3 -3,0 z m 5,-3 c -1.104,0 -2,-0.896 -2,-2 0,-1.104 0.896,-2 2,-2 1.105,0 2,0.896 2,2 0,1.104 -0.895,2 -2,2 z"
         style="fill:#434343;fill-opacity:1" /></g></g></svg>