<?xml version="1.0" encoding="UTF-8" standalone="no"?>
<svg
   xmlns:dc="http://purl.org/dc/elements/1.1/"
   xmlns:cc="http://creativecommons.org/ns#"
   xmlns:rdf="http://www.w3.org/1999/02/22-rdf-syntax-ns#"
   xmlns:svg="http://www.w3.org/2000/svg"
   xmlns="http://www.w3.org/2000/svg"
   xmlns:sodipodi="http://sodipodi.sourceforge.net/DTD/sodipodi-0.dtd"
   xmlns:inkscape="http://www.inkscape.org/namespaces/inkscape"
   height="64"
   width="64"
   id="svg2"
   xml:space="preserve"
   enable-background="new -143.5 -19.058 1024 1024"
   viewBox="-143.5 -19.058 64 64"
   y="0px"
   x="0px"
   version="1.1"
   sodipodi:docname="wave-64-l.svg"
   inkscape:version="0.92.3 (2405546, 2018-03-11)"><sodipodi:namedview
     pagecolor="#ffffff"
     bordercolor="#666666"
     borderopacity="1"
     objecttolerance="10"
     gridtolerance="10"
     guidetolerance="10"
     inkscape:pageopacity="0"
     inkscape:pageshadow="2"
     inkscape:window-width="1920"
     inkscape:window-height="986"
     id="namedview17751"
     showgrid="false"
     inkscape:zoom="2.8284271"
     inkscape:cx="100.47997"
     inkscape:cy="-13.497993"
     inkscape:window-x="-11"
     inkscape:window-y="-11"
     inkscape:window-maximized="1"
     inkscape:current-layer="g5835" /><metadata
     id="metadata68"><rdf:RDF><cc:Work
         rdf:about=""><dc:format>image/svg+xml</dc:format><dc:type
           rdf:resource="http://purl.org/dc/dcmitype/StillImage" /><dc:title></dc:title></cc:Work></rdf:RDF></metadata><defs
     id="defs66" /><circle
     style="opacity:1;fill:#646464;fill-opacity:1;stroke:#000000;stroke-width:0;stroke-linecap:square;stroke-linejoin:bevel;stroke-miterlimit:4;stroke-dasharray:none;stroke-opacity:1;paint-order:stroke fill markers"
     id="path4126-895"
     cx="-141.5"
     cy="42.942001"
     r="0" /><circle
     style="opacity:1;fill:#646464;fill-opacity:1;stroke:#000000;stroke-width:0;stroke-linecap:square;stroke-linejoin:bevel;stroke-miterlimit:4;stroke-dasharray:none;stroke-opacity:1;paint-order:stroke fill markers"
     id="path4126-895-3"
     cx="-137.5"
     cy="42.942001"
     r="0" /><circle
     style="opacity:1;fill:#646464;fill-opacity:1;stroke:#000000;stroke-width:0;stroke-linecap:square;stroke-linejoin:bevel;stroke-miterlimit:4;stroke-dasharray:none;stroke-opacity:1;paint-order:stroke fill markers"
     id="path4126-895-3-7"
     cx="-133.5"
     cy="42.942001"
     r="0" /><circle
     style="opacity:1;fill:#646464;fill-opacity:1;stroke:#000000;stroke-width:0;stroke-linecap:square;stroke-linejoin:bevel;stroke-miterlimit:4;stroke-dasharray:none;stroke-opacity:1;paint-order:stroke fill markers"
     id="path4126-895-3-7-0"
     cx="-129.5"
     cy="42.942001"
     r="0" /><circle
     style="opacity:1;fill:#646464;fill-opacity:1;stroke:#000000;stroke-width:0;stroke-linecap:square;stroke-linejoin:bevel;stroke-miterlimit:4;stroke-dasharray:none;stroke-opacity:1;paint-order:stroke fill markers"
     id="path4126-895-3-7-0-3"
     cx="-125.5"
     cy="42.942001"
     r="0" /><circle
     style="opacity:1;fill:#646464;fill-opacity:1;stroke:#000000;stroke-width:0;stroke-linecap:square;stroke-linejoin:bevel;stroke-miterlimit:4;stroke-dasharray:none;stroke-opacity:1;paint-order:stroke fill markers"
     id="path4126-895-3-7-0-3-7"
     cx="-121.5"
     cy="42.942001"
     r="0" /><circle
     style="opacity:1;fill:#646464;fill-opacity:1;stroke:#000000;stroke-width:0;stroke-linecap:square;stroke-linejoin:bevel;stroke-miterlimit:4;stroke-dasharray:none;stroke-opacity:1;paint-order:stroke fill markers"
     id="path4126-895-3-7-0-3-7-4"
     cx="-117.5"
     cy="42.942001"
     r="0" /><circle
     style="opacity:1;fill:#646464;fill-opacity:1;stroke:#000000;stroke-width:0;stroke-linecap:square;stroke-linejoin:bevel;stroke-miterlimit:4;stroke-dasharray:none;stroke-opacity:1;paint-order:stroke fill markers"
     id="path4126-895-3-7-0-3-7-4-9"
     cx="-113.5"
     cy="42.942001"
     r="0" /><circle
     style="opacity:1;fill:#646464;fill-opacity:1;stroke:#000000;stroke-width:0;stroke-linecap:square;stroke-linejoin:bevel;stroke-miterlimit:4;stroke-dasharray:none;stroke-opacity:1;paint-order:stroke fill markers"
     id="path4126-895-3-8"
     cx="-139.5"
     cy="38.942001"
     r="0" /><circle
     style="opacity:1;fill:#646464;fill-opacity:1;stroke:#000000;stroke-width:0;stroke-linecap:square;stroke-linejoin:bevel;stroke-miterlimit:4;stroke-dasharray:none;stroke-opacity:1;paint-order:stroke fill markers"
     id="path4126-895-3-7-2"
     cx="-135.5"
     cy="38.942001"
     r="0" /><circle
     style="opacity:1;fill:#646464;fill-opacity:1;stroke:#000000;stroke-width:0;stroke-linecap:square;stroke-linejoin:bevel;stroke-miterlimit:4;stroke-dasharray:none;stroke-opacity:1;paint-order:stroke fill markers"
     id="path4126-895-3-7-0-2"
     cx="-131.5"
     cy="38.942001"
     r="0" /><circle
     style="opacity:1;fill:#646464;fill-opacity:1;stroke:#000000;stroke-width:0;stroke-linecap:square;stroke-linejoin:bevel;stroke-miterlimit:4;stroke-dasharray:none;stroke-opacity:1;paint-order:stroke fill markers"
     id="path4126-895-3-7-0-3-1"
     cx="-127.5"
     cy="38.942001"
     r="0" /><circle
     style="opacity:1;fill:#646464;fill-opacity:1;stroke:#000000;stroke-width:0;stroke-linecap:square;stroke-linejoin:bevel;stroke-miterlimit:4;stroke-dasharray:none;stroke-opacity:1;paint-order:stroke fill markers"
     id="path4126-895-3-7-0-3-7-3"
     cx="-123.5"
     cy="38.942001"
     r="0" /><circle
     style="opacity:1;fill:#646464;fill-opacity:1;stroke:#000000;stroke-width:0;stroke-linecap:square;stroke-linejoin:bevel;stroke-miterlimit:4;stroke-dasharray:none;stroke-opacity:1;paint-order:stroke fill markers"
     id="path4126-895-3-7-0-3-7-4-0"
     cx="-119.5"
     cy="38.942001"
     r="0" /><circle
     style="opacity:1;fill:#646464;fill-opacity:1;stroke:#000000;stroke-width:0;stroke-linecap:square;stroke-linejoin:bevel;stroke-miterlimit:4;stroke-dasharray:none;stroke-opacity:1;paint-order:stroke fill markers"
     id="path4126-895-3-7-0-3-7-4-9-0"
     cx="-115.5"
     cy="38.942001"
     r="0" /><circle
     style="opacity:1;fill:#646464;fill-opacity:1;stroke:#000000;stroke-width:0;stroke-linecap:square;stroke-linejoin:bevel;stroke-miterlimit:4;stroke-dasharray:none;stroke-opacity:1;paint-order:stroke fill markers"
     id="path4126-895-3-7-0-3-7-4-9-0-9"
     cx="-111.5"
     cy="38.942001"
     r="0" /><circle
     style="opacity:1;fill:#646464;fill-opacity:1;stroke:#000000;stroke-width:0;stroke-linecap:square;stroke-linejoin:bevel;stroke-miterlimit:4;stroke-dasharray:none;stroke-opacity:1;paint-order:stroke fill markers"
     id="path4126-895-3-8-7"
     cx="-143.5"
     cy="38.942001"
     r="0" /><g
     style="stroke-width:1.93717015;stroke-miterlimit:4;stroke-dasharray:none"
     transform="matrix(0.99735535,-0.07411724,0.07364463,1.0632733,-1.9867136,-6.2338832)"
     id="g5835"><g
       id="g6678"
       style="fill:none"><path
         style="fill:none;stroke:#000000;stroke-width:1.93717015;stroke-linecap:butt;stroke-linejoin:miter;stroke-miterlimit:4;stroke-dasharray:none;stroke-opacity:1"
         d="m -154.96366,15.139137 c 0,0 5.89911,-6.5420648 9.22736,-6.2543799 3.32825,0.2876849 3.18059,5.9709439 6.50309,6.2543799 3.3225,0.283436 5.85515,-6.5325827 9.18341,-6.2543799 3.32828,0.2782028 3.22452,5.9804329 6.54703,6.2543799 3.32251,0.273947 5.81119,-6.5231204 9.13948,-6.2543799 3.32829,0.2687405 3.26844,5.9899019 6.59097,6.2543799 3.32252,0.264478 5.76724,-6.5136773 9.095533,-6.2543799 3.328298,0.2592974 3.31237,5.9993529 6.634909,6.2543799 3.322538,0.255028 5.723286,-6.5042528 9.051596,-6.2543799 3.328311,0.2498729 3.356298,6.0087849 6.678848,6.2543799 3.32255,0.245596 9.007657,-6.2543799 9.007657,-6.2543799"
         id="path4891"
         inkscape:connector-curvature="0"
         sodipodi:nodetypes="czzzzzzzzzzc" /><path
         style="fill:none;stroke:#000000;stroke-width:1.93717015;stroke-linecap:butt;stroke-linejoin:miter;stroke-miterlimit:4;stroke-dasharray:none;stroke-opacity:1"
         d="m -155.45901,21.337947 c 0,0 5.89911,-6.542065 9.22737,-6.25438 3.32824,0.287685 3.18058,5.970944 6.50308,6.25438 3.32249,0.283436 5.85515,-6.532582 9.18342,-6.25438 3.32827,0.278203 3.22451,5.980433 6.54702,6.25438 3.32251,0.273947 5.81119,-6.52312 9.13947,-6.25438 3.32829,0.26874 3.26845,5.989902 6.59098,6.25438 3.32252,0.264478 5.76724,-6.513677 9.095534,-6.25438 3.328299,0.259298 3.312371,5.999352 6.634909,6.25438 3.322538,0.255028 5.723287,-6.504253 9.051596,-6.25438 3.328311,0.249873 3.356299,6.008785 6.678848,6.25438 3.322546,0.245596 9.007654,-6.25438 9.007654,-6.25438"
         id="path4891-8"
         inkscape:connector-curvature="0"
         sodipodi:nodetypes="czzzzzzzzzzc" /><path
         style="fill:none;stroke:#000000;stroke-width:1.93717015;stroke-linecap:butt;stroke-linejoin:miter;stroke-miterlimit:4;stroke-dasharray:none;stroke-opacity:1"
         d="m -153.45374,2.7142774 c 0,0 5.8991,-6.5420645 9.22735,-6.2543796 3.32825,0.2876849 3.1806,5.9709433 6.50309,6.2543796 3.3225,0.2834364 5.85515,-6.5325823 9.18342,-6.2543796 3.32827,0.2782027 3.22452,5.9804329 6.54703,6.2543796 3.3225,0.2739476 5.81119,-6.5231199 9.13947,-6.2543796 3.32829,0.2687402 3.26844,5.9899019 6.59097,6.2543796 3.32253,0.2644786 5.76725,-6.5136772 9.095541,-6.2543796 3.328299,0.2592976 3.312371,5.999352 6.634909,6.2543796 3.322538,0.2550277 5.723287,-6.5042527 9.051596,-6.2543796 3.328311,0.249873 3.356299,6.0087848 6.678849,6.2543796 3.322546,0.2455957 9.007654,-6.2543796 9.007654,-6.2543796"
         id="path4891-3"
         inkscape:connector-curvature="0"
         sodipodi:nodetypes="czzzzzzzzzzc" /><path
         style="fill:none;stroke:#000000;stroke-width:1.93717015;stroke-linecap:butt;stroke-linejoin:miter;stroke-miterlimit:4;stroke-dasharray:none;stroke-opacity:1"
         d="m -153.94909,8.9130875 c 0,0 5.8991,-6.5420645 9.22736,-6.2543796 3.32825,0.2876849 3.18058,5.9709432 6.50309,6.2543796 3.32249,0.2834362 5.85515,-6.5325823 9.18341,-6.2543796 3.32828,0.2782027 3.22451,5.9804328 6.54703,6.2543796 3.3225,0.2739474 5.81119,-6.5231199 9.13947,-6.2543796 3.32829,0.2687403 3.26844,5.9899018 6.59097,6.2543796 3.32252,0.2644784 5.76724,-6.5136772 9.095543,-6.2543796 3.328298,0.2592976 3.31237,5.9993519 6.634908,6.2543796 3.322539,0.2550275 5.723287,-6.5042527 9.051597,-6.2543796 3.32831,0.2498731 3.356298,6.0087847 6.678848,6.2543796 3.322543,0.2455956 9.007651,-6.2543796 9.007651,-6.2543796"
         id="path4891-8-2"
         inkscape:connector-curvature="0"
         sodipodi:nodetypes="czzzzzzzzzzc" /><path
         style="fill:none;stroke:#000000;stroke-width:1.93717015;stroke-linecap:butt;stroke-linejoin:miter;stroke-miterlimit:4;stroke-dasharray:none;stroke-opacity:1"
         d="m -152.45111,-9.8364327 c 0,0 5.8991,-6.5420643 9.22735,-6.2543793 3.32825,0.287685 3.1806,5.970944 6.50309,6.2543793 3.3225,0.2834364 5.85515,-6.5325823 9.18342,-6.2543793 3.32827,0.278202 3.22451,5.980433 6.54703,6.2543793 3.32251,0.2739476 5.8112,-6.5231203 9.13948,-6.2543793 3.32829,0.26874 3.26844,5.989902 6.59097,6.2543793 3.32252,0.2644785 5.767238,-6.5136773 9.095531,-6.2543793 3.328299,0.259297 3.312371,5.999352 6.634909,6.2543793 3.322538,0.2550277 5.723287,-6.5042523 9.051596,-6.2543793 3.328311,0.249873 3.356299,6.008784 6.678849,6.2543793 3.322546,0.2455957 9.007654,-6.2543793 9.007654,-6.2543793"
         id="path4891-43"
         inkscape:connector-curvature="0"
         sodipodi:nodetypes="czzzzzzzzzzc" /><path
         style="fill:none;stroke:#000000;stroke-width:1.93717015;stroke-linecap:butt;stroke-linejoin:miter;stroke-miterlimit:4;stroke-dasharray:none;stroke-opacity:1"
         d="m -152.94646,-3.6376226 c 0,0 5.8991,-6.5420644 9.22736,-6.2543796 3.32825,0.2876849 3.18058,5.9709433 6.50309,6.2543796 3.32249,0.2834364 5.85515,-6.5325824 9.18341,-6.2543796 3.32828,0.2782027 3.22451,5.9804329 6.54703,6.2543796 3.32251,0.2739476 5.81119,-6.5231194 9.13948,-6.2543796 3.32828,0.2687402 3.26844,5.9899019 6.59097,6.2543796 3.32252,0.2644786 5.767236,-6.5136774 9.095533,-6.2543796 3.328298,0.2592976 3.31237,5.999352 6.634908,6.2543796 3.322539,0.2550277 5.723287,-6.5042524 9.051597,-6.2543796 3.32831,0.249873 3.356298,6.0087847 6.678848,6.2543796 3.322543,0.2455957 9.007651,-6.2543796 9.007651,-6.2543796"
         id="path4891-8-8"
         inkscape:connector-curvature="0"
         sodipodi:nodetypes="czzzzzzzzzzc" /><path
         style="fill:none;stroke:#000000;stroke-width:1.93717015;stroke-linecap:butt;stroke-linejoin:miter;stroke-miterlimit:4;stroke-dasharray:none;stroke-opacity:1"
         d="m -150.9412,-22.261292 c 0,0 5.89911,-6.542065 9.22736,-6.25438 3.32825,0.287685 3.18059,5.970944 6.50309,6.25438 3.32249,0.283436 5.85514,-6.532582 9.18341,-6.25438 3.32827,0.278203 3.22452,5.980433 6.54703,6.25438 3.32252,0.273948 5.8112,-6.52312 9.13948,-6.25438 3.32829,0.268741 3.26845,5.989902 6.59098,6.25438 3.32251,0.264479 5.767236,-6.513677 9.09553,-6.25438 3.328298,0.259298 3.31237,5.999352 6.634908,6.25438 3.322539,0.255028 5.723287,-6.504253 9.051597,-6.25438 3.32831,0.249873 3.356298,6.008785 6.678845,6.25438 3.322553,0.245596 9.007661,-6.25438 9.007661,-6.25438"
         id="path4891-3-9"
         inkscape:connector-curvature="0"
         sodipodi:nodetypes="czzzzzzzzzzc" /><path
         style="fill:none;stroke:#000000;stroke-width:1.93717015;stroke-linecap:butt;stroke-linejoin:miter;stroke-miterlimit:4;stroke-dasharray:none;stroke-opacity:1"
         d="m -151.43655,-16.062482 c 0,0 5.89911,-6.542064 9.22736,-6.25438 3.32825,0.287685 3.18059,5.970944 6.50309,6.25438 3.32249,0.283436 5.85515,-6.532582 9.18342,-6.25438 3.32827,0.278203 3.22451,5.980433 6.54702,6.25438 3.32251,0.273948 5.8112,-6.52312 9.13948,-6.25438 3.32829,0.268741 3.26844,5.989902 6.59097,6.25438 3.32252,0.264479 5.76724,-6.513677 9.095541,-6.25438 3.328299,0.259298 3.31237,5.999352 6.634909,6.25438 3.322538,0.255028 5.723286,-6.504253 9.051596,-6.25438 3.328311,0.249874 3.356299,6.008785 6.678848,6.25438 3.322548,0.245596 9.007655,-6.25438 9.007655,-6.25438"
         id="path4891-8-2-7"
         inkscape:connector-curvature="0"
         sodipodi:nodetypes="czzzzzzzzzzc" /><path
         style="fill:none;stroke:#000000;stroke-width:1.93717015;stroke-linecap:butt;stroke-linejoin:miter;stroke-miterlimit:4;stroke-dasharray:none;stroke-opacity:1"
         d="m -159.81308,65.212055 c 0,0 5.8991,-6.542065 9.22735,-6.25438 3.32825,0.287685 3.18059,5.970944 6.50309,6.25438 3.3225,0.283436 5.85515,-6.532583 9.18342,-6.25438 3.32827,0.278203 3.22451,5.980433 6.54703,6.25438 3.3225,0.273947 5.81119,-6.52312 9.13947,-6.25438 3.32829,0.268741 3.26844,5.989902 6.59097,6.25438 3.32252,0.264478 5.76724,-6.513677 9.09554,-6.25438 3.32829,0.259298 3.31237,5.999353 6.634905,6.25438 3.322538,0.255028 5.723286,-6.504253 9.051596,-6.25438 3.328311,0.249873 3.356298,6.008785 6.678848,6.25438 3.32255,0.245596 9.007657,-6.25438 9.007657,-6.25438"
         id="path4891-41"
         inkscape:connector-curvature="0"
         sodipodi:nodetypes="czzzzzzzzzzc" /><path
         style="fill:none;stroke:#000000;stroke-width:1.93717015;stroke-linecap:butt;stroke-linejoin:miter;stroke-miterlimit:4;stroke-dasharray:none;stroke-opacity:1"
         d="m -160.30844,71.410865 c 0,0 5.89911,-6.542065 9.22737,-6.25438 3.32825,0.287685 3.18058,5.970944 6.50309,6.25438 3.32249,0.283436 5.85515,-6.532582 9.18341,-6.25438 3.32827,0.278203 3.22451,5.980433 6.54703,6.25438 3.3225,0.273947 5.81119,-6.52312 9.13947,-6.25438 3.32829,0.26874 3.26844,5.989902 6.59097,6.25438 3.32252,0.264478 5.76724,-6.513677 9.09554,-6.25438 3.3283,0.259298 3.31237,5.999352 6.634906,6.25438 3.322538,0.255028 5.723287,-6.504253 9.051596,-6.25438 3.328311,0.249873 3.356299,6.008785 6.678848,6.25438 3.322546,0.245596 9.007654,-6.25438 9.007654,-6.25438"
         id="path4891-8-1"
         inkscape:connector-curvature="0"
         sodipodi:nodetypes="czzzzzzzzzzc" /><path
         style="fill:none;stroke:#000000;stroke-width:1.93717015;stroke-linecap:butt;stroke-linejoin:miter;stroke-miterlimit:4;stroke-dasharray:none;stroke-opacity:1"
         d="m -158.30317,52.787195 c 0,0 5.89911,-6.542064 9.22736,-6.254379 3.32825,0.287685 3.18059,5.970943 6.50309,6.254379 3.32249,0.283437 5.85514,-6.532582 9.18341,-6.254379 3.32827,0.278202 3.22452,5.980433 6.54703,6.254379 3.32251,0.273948 5.81119,-6.523119 9.13947,-6.254379 3.32829,0.26874 3.26845,5.989902 6.59098,6.254379 3.32252,0.264479 5.76724,-6.513677 9.09553,-6.254379 3.328303,0.259297 3.312375,5.999352 6.634913,6.254379 3.322538,0.255028 5.723287,-6.504252 9.051596,-6.254379 3.328311,0.249873 3.356299,6.008785 6.678849,6.254379 3.322546,0.245596 9.007654,-6.254379 9.007654,-6.254379"
         id="path4891-3-6"
         inkscape:connector-curvature="0"
         sodipodi:nodetypes="czzzzzzzzzzc" /><path
         style="fill:none;stroke:#000000;stroke-width:1.93717015;stroke-linecap:butt;stroke-linejoin:miter;stroke-miterlimit:4;stroke-dasharray:none;stroke-opacity:1"
         d="m -158.79852,58.986005 c 0,0 5.89911,-6.542064 9.22736,-6.254379 3.32825,0.287685 3.18059,5.970943 6.50309,6.254379 3.32249,0.283437 5.85515,-6.532582 9.18342,-6.254379 3.32827,0.278203 3.22451,5.980433 6.54702,6.254379 3.3225,0.273948 5.81119,-6.523119 9.13947,-6.254379 3.32829,0.26874 3.26845,5.989902 6.59097,6.254379 3.32253,0.264479 5.76724,-6.513677 9.09555,-6.254379 3.328294,0.259297 3.312366,5.999352 6.634904,6.254379 3.322539,0.255028 5.723287,-6.504252 9.051597,-6.254379 3.32831,0.249873 3.356298,6.008785 6.678848,6.254379 3.322543,0.245596 9.007651,-6.254379 9.007651,-6.254379"
         id="path4891-8-2-2"
         inkscape:connector-curvature="0"
         sodipodi:nodetypes="czzzzzzzzzzc" /><path
         style="fill:none;stroke:#000000;stroke-width:1.93717015;stroke-linecap:butt;stroke-linejoin:miter;stroke-miterlimit:4;stroke-dasharray:none;stroke-opacity:1"
         d="m -157.30054,40.236485 c 0,0 5.89911,-6.542064 9.22736,-6.254379 3.32824,0.287685 3.18059,5.970944 6.50309,6.254379 3.32249,0.283437 5.85514,-6.532582 9.18341,-6.254379 3.32827,0.278202 3.22452,5.980433 6.54703,6.254379 3.32251,0.273948 5.8112,-6.52312 9.13948,-6.254379 3.32829,0.26874 3.26844,5.989902 6.59097,6.254379 3.32253,0.264479 5.76724,-6.513677 9.09553,-6.254379 3.328303,0.259297 3.312375,5.999352 6.634913,6.254379 3.322538,0.255028 5.723287,-6.504252 9.051596,-6.254379 3.328311,0.249873 3.356299,6.008784 6.678849,6.254379 3.322546,0.245596 9.007654,-6.254379 9.007654,-6.254379"
         id="path4891-43-4"
         inkscape:connector-curvature="0"
         sodipodi:nodetypes="czzzzzzzzzzc" /><path
         style="fill:none;stroke:#000000;stroke-width:1.93717015;stroke-linecap:butt;stroke-linejoin:miter;stroke-miterlimit:4;stroke-dasharray:none;stroke-opacity:1"
         d="m -157.79589,46.435295 c 0,0 5.8991,-6.542064 9.22736,-6.254379 3.32825,0.287685 3.18059,5.970943 6.50309,6.254379 3.32249,0.283437 5.85515,-6.532582 9.18341,-6.254379 3.32828,0.278202 3.22452,5.980433 6.54703,6.254379 3.32251,0.273948 5.8112,-6.523119 9.13948,-6.254379 3.32829,0.26874 3.26844,5.989902 6.59097,6.254379 3.32252,0.264479 5.76724,-6.513677 9.09554,-6.254379 3.328294,0.259297 3.312366,5.999352 6.634904,6.254379 3.322539,0.255028 5.723287,-6.504252 9.051597,-6.254379 3.32831,0.249873 3.356298,6.008785 6.678848,6.254379 3.322543,0.245596 9.007651,-6.254379 9.007651,-6.254379"
         id="path4891-8-8-6"
         inkscape:connector-curvature="0"
         sodipodi:nodetypes="czzzzzzzzzzc" /><path
         style="fill:none;stroke:#000000;stroke-width:1.93717015;stroke-linecap:butt;stroke-linejoin:miter;stroke-miterlimit:4;stroke-dasharray:none;stroke-opacity:1"
         d="m -155.79063,27.811626 c 0,0 5.89911,-6.542065 9.22736,-6.25438 3.32825,0.287685 3.18059,5.970944 6.50309,6.25438 3.3225,0.283436 5.85515,-6.532582 9.18341,-6.25438 3.32828,0.278203 3.22452,5.980433 6.54704,6.25438 3.32251,0.273948 5.81119,-6.52312 9.13947,-6.25438 3.32829,0.268741 3.26845,5.989902 6.59098,6.25438 3.32252,0.264479 5.76724,-6.513677 9.095533,-6.25438 3.328298,0.259298 3.31237,5.999352 6.634908,6.25438 3.322539,0.255028 5.723287,-6.504253 9.051597,-6.25438 3.32831,0.249873 3.356298,6.008785 6.678845,6.25438 3.322553,0.245596 9.007661,-6.25438 9.007661,-6.25438"
         id="path4891-3-9-4"
         inkscape:connector-curvature="0"
         sodipodi:nodetypes="czzzzzzzzzzc" /><path
         style="fill:none;stroke:#000000;stroke-width:1.93717015;stroke-linecap:butt;stroke-linejoin:miter;stroke-miterlimit:4;stroke-dasharray:none;stroke-opacity:1"
         d="m -156.28598,34.010436 c 0,0 5.89911,-6.542064 9.22737,-6.25438 3.32824,0.287685 3.18058,5.970944 6.50309,6.25438 3.32248,0.283436 5.85514,-6.532582 9.18341,-6.25438 3.32827,0.278203 3.22451,5.980433 6.54702,6.25438 3.32252,0.273948 5.8112,-6.52312 9.13948,-6.25438 3.32829,0.268741 3.26845,5.989902 6.59098,6.25438 3.32252,0.264479 5.76723,-6.513677 9.095534,-6.25438 3.328299,0.259298 3.31237,5.999352 6.634909,6.25438 3.322538,0.255028 5.723286,-6.504253 9.051596,-6.25438 3.328311,0.249874 3.356299,6.008785 6.678848,6.25438 3.322548,0.245596 9.007655,-6.25438 9.007655,-6.25438"
         id="path4891-8-2-7-1"
         inkscape:connector-curvature="0"
         sodipodi:nodetypes="czzzzzzzzzzc" /></g></g></svg>