<?xml version="1.0" encoding="UTF-8" standalone="no"?>
<svg
   xmlns:dc="http://purl.org/dc/elements/1.1/"
   xmlns:cc="http://creativecommons.org/ns#"
   xmlns:rdf="http://www.w3.org/1999/02/22-rdf-syntax-ns#"
   xmlns:svg="http://www.w3.org/2000/svg"
   xmlns="http://www.w3.org/2000/svg"
   id="svg9135"
   version="1.1"
   width="21"
   height="21"
   viewBox="0 0 21 21">
  <metadata
     id="metadata9141">
    <rdf:RDF>
      <cc:Work
         rdf:about="">
        <dc:format>image/svg+xml</dc:format>
        <dc:type
           rdf:resource="http://purl.org/dc/dcmitype/StillImage" />
        <dc:title>information-15.svg</dc:title>
      </cc:Work>
    </rdf:RDF>
  </metadata>
  <defs
     id="defs9139" />
  <title
     id="title9127">information-15.svg</title>
  <rect
     id="rect9129"
     height="21"
     width="21"
     y="0"
     x="0"
     fill="none" />
  <path
     id="path9131"
     stroke-width="2"
     stroke="rgba(255,255,255,0.25)"
     style="stroke-linejoin:round;stroke-miterlimit:4px;"
     d="M7.5,1  C6.7,1,6,1.7,6,2.5S6.7,4,7.5,4S9,3.3,9,2.5S8.3,1,7.5,1z M4,5v1c0,0,2,0,2,2v2c0,2-2,2-2,2v1h7v-1c0,0-2,0-2-2V6c0-0.5-0.5-1-1-1H4  z"
     transform="translate(3 3)"
     fill="rgba(255,255,255,0.25)" />
  <path
     style="fill:#000000;fill-opacity:1"
     id="path9133"
     d="M7.5,1  C6.7,1,6,1.7,6,2.5S6.7,4,7.5,4S9,3.3,9,2.5S8.3,1,7.5,1z M4,5v1c0,0,2,0,2,2v2c0,2-2,2-2,2v1h7v-1c0,0-2,0-2-2V6c0-0.5-0.5-1-1-1H4  z"
     transform="translate(3 3)"
     fill="#444444" />
</svg>
