<svg xmlns="http://www.w3.org/2000/svg" xmlns:xlink="http://www.w3.org/1999/xlink" version="1.1" x="0px" y="0px" viewBox="0 0 16 20" style="enable-background:new 0 0 16 16;" xml:space="preserve"><g><path d="M13,2c0-0.552-0.448-1-1-1H4C3.448,1,3,1.448,3,2v1h10V2z"/><path d="M14,4H2C1.448,4,1,4.448,1,5v6c0,0.552,0.448,1,1,1h1v2c0,0.552,0.448,1,1,1h8c0.552,0,1-0.448,1-1v-2h1   c0.552,0,1-0.448,1-1V5C15,4.448,14.552,4,14,4z M12,14H4V9h8V14z M13,7h-2V6h2V7z"/><rect x="5" y="12" width="3" height="1"/><rect x="5" y="10" width="6" height="1"/></g><text x="0" y="31" fill="#000000" font-size="5px" font-weight="bold" font-family="'Helvetica Neue', Helvetica, Arial-Unicode, Arial, Sans-serif">Created by Icon Solid</text><text x="0" y="36" fill="#000000" font-size="5px" font-weight="bold" font-family="'Helvetica Neue', Helvetica, Arial-Unicode, Arial, Sans-serif">from the Noun Project</text></svg>