<svg xmlns="http://www.w3.org/2000/svg" data-name="Layer 1" viewBox="0 0 100 125" x="0px" y="0px"><title>1Artboard 3</title><path d="M66,40H34V24a6,6,0,0,1,6-6H60a6,6,0,0,1,6,6Zm16-2V64a6,6,0,0,1-6,6H72v6a6,6,0,0,1-6,6H34a6,6,0,0,1-6-6V70H24a6,6,0,0,1-6-6V38a6,6,0,0,1,6-6h4V46H72V32h4A6,6,0,0,1,82,38ZM64,60H36V74H64Z"/><text x="0" y="115" fill="#000000" font-size="5px" font-weight="bold" font-family="'Helvetica Neue', Helvetica, Arial-Unicode, Arial, Sans-serif">Created by Gregor Cresnar</text><text x="0" y="120" fill="#000000" font-size="5px" font-weight="bold" font-family="'Helvetica Neue', Helvetica, Arial-Unicode, Arial, Sans-serif">from the Noun Project</text></svg>