<?xml version="1.0" encoding="UTF-8" standalone="no"?>
<svg
   xmlns:dc="http://purl.org/dc/elements/1.1/"
   xmlns:cc="http://creativecommons.org/ns#"
   xmlns:rdf="http://www.w3.org/1999/02/22-rdf-syntax-ns#"
   xmlns:svg="http://www.w3.org/2000/svg"
   xmlns="http://www.w3.org/2000/svg"
   height="17"
   width="17"
   id="svg2"
   y="0px"
   x="0px"
   version="1.1"
   viewBox="0 0 17 17">
  <metadata
     id="metadata24">
    <rdf:RDF>
      <cc:Work
         rdf:about="">
        <dc:format>image/svg+xml</dc:format>
        <dc:type
           rdf:resource="http://purl.org/dc/dcmitype/StillImage" />
        <dc:title>58 -Trash Bag- (Solid)</dc:title>
      </cc:Work>
    </rdf:RDF>
  </metadata>
  <defs
     id="defs22" />
  <title
     id="title4">58 -Trash Bag- (Solid)</title>
  <desc
     id="desc6">Created with Sketch.</desc>
  <g
     transform="matrix(0.28317743,0,0,0.28317743,-0.27855584,0.13113662)"
     style="fill:none;fill-rule:evenodd;stroke:none;stroke-width:1"
     id="g8">
    <g
       style="fill:#000000"
       id="g10"
       transform="translate(-959,-951)">
      <g
         id="g12"
         transform="translate(959,951)">
        <path
           id="path14"
           d="m 51.1172,35.2767 c -0.04,0.005 -0.079,0.007 -0.118,0.007 -0.5,0 -0.933,-0.374 -0.992,-0.883 -0.912,-7.738 -10.161,-13.094 -15.594,-15.598 -2.152,-0.992 -4.674,-0.992 -6.826,0 -5.433,2.504 -14.682,7.86 -15.594,15.598 -0.064,0.549 -0.556,0.941 -1.11,0.876 -0.549,-0.064 -0.941,-0.562 -0.876,-1.11 1.026,-8.707 10.93,-14.501 16.742,-17.18 2.683,-1.236 5.818,-1.236 8.502,0 5.811,2.679 15.716,8.473 16.742,17.18 0.064,0.548 -0.327,1.046 -0.876,1.11 M 23.2632,3.1957 c 0.239,-0.44 0.617,-0.749 1.153,-0.943 0.652,-0.235 1.438,-0.213 2.215,0.065 1.78,0.634 5.105,1.698 7.369,1.698 l 3.384,0 c 0.306,0 0.583,0.199 0.617,0.442 0.084,0.603 -0.188,2.436 -4.406,6.558 l -6.081,0 -4.032,-5.644 c -0.484,-0.679 -0.57,-1.532 -0.219,-2.176 m 37.737,50.757 c -0.022,-1.849 -0.956,-3.503 -2.707,-4.786 -0.822,-0.603 -1.293,-1.498 -1.293,-2.458 l -0.005,-12.79 c -1.113,-11.315 -12.79,-18.31 -19.651,-21.473 -0.558,-0.257 -1.128,-0.47 -1.705,-0.656 3.167,-3.226 4.604,-5.728 4.342,-7.609 -0.172,-1.234 -1.289,-2.165 -2.597,-2.165 l -3.384,0 c -1.434,0 -3.875,-0.577 -6.697,-1.582 -1.213,-0.434 -2.481,-0.457 -3.569,-0.061 -1.002,0.363 -1.752,0.992 -2.227,1.866 -0.715,1.311 -0.578,2.998 0.348,4.295 l 3.909,5.473 c -0.372,0.137 -0.745,0.272 -1.108,0.439 -6.861,3.163 -18.538,10.158 -19.656,21.57 l 0,12.693 c 0,0.96 -0.471,1.855 -1.292,2.458 -1.752,1.283 -2.687,2.937 -2.708,4.786 -0.04,0.386 -0.094,1.755 0.983,3.012 1.165,1.361 3.189,2.051 6.017,2.051 l 46,0 c 2.828,0 4.851,-0.69 6.016,-2.051 1.078,-1.257 1.024,-2.626 0.984,-3.012" />
      </g>
    </g>
  </g>
</svg>
